<?xml version="1.0" standalone="no"?>
<!DOCTYPE svg PUBLIC "-//W3C//DTD SVG 1.1//EN" "http://www.w3.org/Graphics/SVG/1.1/DTD/svg11.dtd" >
<svg xmlns="http://www.w3.org/2000/svg">
<metadata></metadata>
<defs>
<font id="newslab_lightlight_italic" horiz-adv-x="1447" >
<font-face units-per-em="2048" ascent="1536" descent="-512" />
<missing-glyph horiz-adv-x="495" />
<glyph unicode="&#xfb01;" horiz-adv-x="1247" d="M78 0l12 113h143l76 733h-147l12 110h148l26 256q17 163 107 248.5t237 85.5q44 0 83.5 -7.5t56.5 -14.5l18 -8l-12 -117q-54 31 -140 31q-91 0 -146 -55t-67 -167l-26 -252h303l-12 -110h-304l-75 -733h211l-13 -113h-491zM762 0l12 113h144l75 731h-143l12 112h281 l-88 -843h139l-12 -113h-420zM999 1331q0 51 36.5 87t86.5 36q43 0 72 -29.5t29 -72.5q0 -51 -37 -86t-88 -35q-43 0 -71 28.5t-28 71.5z" />
<glyph unicode="&#xfb02;" horiz-adv-x="1243" d="M78 0l12 113h143l76 733h-147l12 110h148l26 256q17 163 107 248.5t237 85.5q44 0 83.5 -7.5t56.5 -14.5l18 -8l-12 -117q-54 31 -140 31q-91 0 -146 -55t-67 -167l-26 -252h303l-12 -110h-304l-75 -733h211l-13 -113h-491zM760 0l12 113h143l138 1302h-144l11 113h280 l-147 -1415h139l-12 -113h-420z" />
<glyph horiz-adv-x="0" />
<glyph horiz-adv-x="682" />
<glyph unicode=" "  horiz-adv-x="495" />
<glyph unicode="&#x09;" horiz-adv-x="495" />
<glyph unicode="&#xa0;" horiz-adv-x="495" />
<glyph unicode="!" horiz-adv-x="518" d="M172 72q0 41 32 71.5t72 30.5q36 0 61 -25t25 -61q0 -42 -31.5 -72t-74.5 -30q-35 0 -59.5 24.5t-24.5 61.5zM240 338l104 1190h154l-146 -1190h-112z" />
<glyph unicode="&#x22;" horiz-adv-x="630" d="M262 1171l29 373h121l-47 -373h-103zM512 1171l29 373h121l-48 -373h-102z" />
<glyph unicode="#" horiz-adv-x="1275" d="M115 381l12 117h238l135 379h-195l12 116h224l153 428h131l-153 -428h289l153 428h131l-153 -428h215l-13 -116h-243l-136 -379h201l-12 -117h-230l-137 -381h-131l137 381h-288l-138 -381h-131l138 381h-209zM496 498h288l136 379h-289z" />
<glyph unicode="$" horiz-adv-x="1179" d="M143 340l9 84h143l-6 -57q-12 -116 71 -185t232 -69q191 0 290 66.5t99 193.5q0 64 -33.5 112.5t-87.5 76.5t-123.5 54.5t-142.5 46t-142.5 50t-123.5 67t-87.5 98.5t-33.5 142q0 155 124 268.5t339 130.5l18 164h117l-19 -166q191 -12 288.5 -107t80.5 -245l-8 -70h-139 l4 45q10 109 -60.5 181.5t-238.5 72.5q-160 0 -259.5 -72.5t-99.5 -183.5q0 -67 42.5 -115t111 -77t151 -53.5t165 -54t151 -69t111 -108t42.5 -162.5q0 -170 -123 -284t-366 -127l-18 -168h-117l18 168q-103 7 -181 38.5t-122 80.5t-63 108t-13 125z" />
<glyph unicode="%" horiz-adv-x="1583" d="M178 997q0 201 92.5 312.5t243.5 111.5q122 0 191 -79.5t69 -229.5q0 -204 -91.5 -312t-246.5 -108q-121 0 -189.5 78t-68.5 227zM301 1004q0 -199 148 -199q94 0 148 72t54 227q0 104 -40 155.5t-109 51.5q-92 0 -146.5 -76.5t-54.5 -230.5zM326 0l1036 1530l90 -55 l-1036 -1530zM952 291q0 201 91.5 312.5t242.5 111.5q123 0 191.5 -79.5t68.5 -229.5q0 -204 -91 -312t-245 -108q-121 0 -189.5 78t-68.5 227zM1075 297q0 -199 148 -199q93 0 146.5 72t53.5 227q0 104 -39 155.5t-108 51.5q-92 0 -146.5 -76.5t-54.5 -230.5z" />
<glyph unicode="&#x26;" horiz-adv-x="1353" d="M129 342q0 78 26.5 145.5t64 111t88.5 79.5t89.5 53.5t77.5 30.5q-117 159 -117 303q0 83 33 151.5t88 112.5t125 68t146 24q58 0 112 -16t101 -48t75.5 -89t28.5 -131q0 -84 -32 -153.5t-75.5 -111.5t-103 -75t-99.5 -47t-79 -23l313 -393q64 95 76 213l16 158h267 l-13 -119h-135l-2 -23q-17 -181 -127 -332l187 -231h-185l-102 127q-82 -68 -186 -104.5t-212 -36.5q-93 0 -169.5 21t-127 55.5t-85 81t-49.5 96t-15 102.5zM276 358q0 -111 90.5 -177t225.5 -66q174 0 303 110l-348 445q-31 -11 -61 -24.5t-70 -40.5t-69 -59.5t-50 -81.5 t-21 -106zM502 1071q0 -113 108 -256q29 4 60.5 12t79.5 30t83.5 52.5t62 85t26.5 121.5q0 73 -47.5 125.5t-133.5 52.5q-107 0 -173 -60.5t-66 -162.5z" />
<glyph unicode="'" horiz-adv-x="380" d="M262 1171l29 373h121l-47 -373h-103z" />
<glyph unicode="(" horiz-adv-x="720" d="M129 354q0 158 29.5 303.5t75 254t109.5 206.5t123.5 163.5t127 122t110.5 85t82 49.5l52 -84q-31 -22 -64.5 -48t-92.5 -82.5t-110.5 -118.5t-109 -153.5t-98 -189.5t-67 -226t-26.5 -263q0 -143 31 -276.5t74 -224.5t98.5 -170t93 -118t68.5 -63l-70 -84q-41 26 -87 65 t-111.5 120t-115.5 177.5t-86 243.5t-36 311z" />
<glyph unicode=")" horiz-adv-x="720" d="M-14 -479q33 24 64.5 49t91.5 83t110 118.5t108 153t97.5 190t66.5 225.5t27 262q0 144 -31 278t-74 225t-98 169.5t-92.5 117.5t-67.5 62l70 84q27 -17 57.5 -41t74.5 -68.5t83.5 -96.5t80.5 -127.5t70.5 -159.5t48.5 -194.5t19 -229.5q0 -157 -29.5 -302.5t-75 -254 t-109 -206.5t-123 -163.5t-126.5 -122.5t-110 -85.5t-82 -49.5z" />
<glyph unicode="*" horiz-adv-x="815" d="M252 1282l49 72l186 -109l33 242h84l-18 -242l213 109l32 -72l-223 -129l131 -192l-69 -56l-150 189l-184 -189l-60 56l170 190z" />
<glyph unicode="+" horiz-adv-x="1110" d="M158 592l12 117h405l48 444h131l-47 -444h383l-13 -117h-383l-47 -440h-131l47 440h-405z" />
<glyph unicode="," horiz-adv-x="468" d="M137 63q0 42 31.5 70.5t73.5 28.5q45 0 70.5 -30t25.5 -85q0 -194 -174 -258l-14 53q33 9 68.5 45.5t35.5 94.5l-4 14q-10 -10 -39 -10q-33 0 -53.5 21t-20.5 56z" />
<glyph unicode="-" horiz-adv-x="948" d="M190 535l15 127h678l-15 -127h-678z" />
<glyph unicode="." horiz-adv-x="442" d="M133 74q0 41 33.5 72.5t73.5 31.5q36 0 61 -26t25 -62q0 -42 -32 -73t-75 -31q-35 0 -60.5 25.5t-25.5 62.5z" />
<glyph unicode="/" horiz-adv-x="778" d="M41 -164l727 1802l123 -36l-729 -1805z" />
<glyph unicode="0" horiz-adv-x="1355" d="M176 578q0 207 47 368t133 264.5t205 157t266 53.5q236 0 368 -153t132 -453q0 -407 -175.5 -618t-475.5 -211q-237 0 -368.5 149.5t-131.5 442.5zM324 582q0 -469 366 -469q110 0 197.5 38.5t154 119t102.5 217t36 321.5q0 247 -96.5 366t-268.5 119 q-109 0 -197.5 -41.5t-154.5 -126t-102.5 -223t-36.5 -321.5z" />
<glyph unicode="1" horiz-adv-x="974" d="M111 0l12 119h362l117 1104l-342 -179l-55 91l440 274h117l-135 -1290h327l-14 -119h-829z" />
<glyph unicode="2" horiz-adv-x="1198" d="M127 0l10 102q11 5 31 14t81 39.5t120.5 63.5t140 85.5t150 106.5t140 124.5t120 141t81 155t31.5 167.5q0 135 -82 215t-231 80q-86 0 -154 -24.5t-111.5 -68t-69 -97t-36.5 -117.5l-4 -33h-147q6 52 6 62q3 75 38 146t98.5 129.5t165 94t226.5 35.5q221 0 335 -108.5 t114 -290.5q0 -92 -27 -181.5t-73 -163.5t-106 -143t-125.5 -123.5t-131.5 -102t-126 -81.5t-106 -58t-73 -36l-27 -12h723l-10 -121h-971z" />
<glyph unicode="3" horiz-adv-x="1214" d="M106 229l91 93q0 -1 7.5 -11t17 -21t24.5 -28t34 -33t42.5 -33.5t52.5 -31.5t61 -26t71.5 -18.5t80.5 -6.5q198 0 309 87t111 232q0 101 -77.5 162t-234.5 61h-147l12 125h137q37 0 77 6.5t87.5 26t84 49.5t61 81.5t24.5 117.5q0 102 -76.5 167.5t-232.5 65.5 q-79 0 -141 -22.5t-99 -59.5t-57.5 -78t-26.5 -85l-4 -37h-137q6 51 8 65q15 151 147.5 247.5t325.5 96.5q115 0 202.5 -28.5t137.5 -78t74.5 -109t24.5 -128.5q0 -77 -27 -140.5t-65 -99t-76 -60.5t-65 -33l-27 -9l-3 -10q5 -1 13.5 -2.5t33 -10.5t47 -20.5t49.5 -34.5 t46.5 -51.5t33 -72.5t13.5 -95q0 -204 -157 -328t-421 -124q-69 0 -131 12t-107 33t-82 44.5t-63.5 50.5t-42.5 46.5t-28 37.5t-13 19z" />
<glyph unicode="4" horiz-adv-x="1159" d="M100 383l13 117l764 909h178l-97 -907h183l-13 -119h-182l-41 -383h-141l41 383h-705zM264 502h553l78 747z" />
<glyph unicode="5" horiz-adv-x="1196" d="M94 217l99 94q100 -140 274 -182q61 -14 127 -14q194 0 306 95t112 273q0 127 -93 204t-260 77q-24 0 -48.5 -2.5t-46 -6t-44 -9t-41 -11t-38.5 -12.5t-33.5 -12.5t-29.5 -12.5t-23.5 -11t-18.5 -9t-12 -6l-76 35l137 702h809l-12 -121h-686l-93 -475q5 3 13.5 8.5t38 19 t61 23.5t79.5 18.5t97 8.5q216 0 337.5 -106.5t121.5 -288.5q0 -235 -155 -372.5t-416 -137.5q-62 0 -118.5 9.5t-99.5 24t-82 35t-65 40t-50 42t-36 37t-23 28.5z" />
<glyph unicode="6" horiz-adv-x="1249" d="M174 578q0 210 49.5 372t140 264.5t213 154.5t273.5 52q216 0 364 -123l-90 -106q-3 4 -14.5 13.5t-37.5 25.5t-57.5 29.5t-78.5 23.5t-98 10q-205 0 -336 -136.5t-168 -422.5q26 20 60.5 39.5t90.5 42.5t134.5 37t166.5 14q206 0 318.5 -104.5t112.5 -280.5 q0 -216 -151.5 -356.5t-393.5 -140.5q-233 0 -365.5 147.5t-132.5 444.5zM324 594q-9 -248 86 -364.5t276 -116.5q179 0 285 99.5t106 252.5q0 120 -87.5 198t-235.5 78q-81 0 -158 -17.5t-131.5 -44t-87.5 -47t-53 -38.5z" />
<glyph unicode="7" horiz-adv-x="1081" d="M180 1057l43 352h977l-8 -86l-674 -1325h-149l632 1237q8 16 17.5 29t15.5 18l6 6h-718l-25 -231h-117z" />
<glyph unicode="8" horiz-adv-x="1226" d="M141 340q0 82 27.5 149.5t65.5 108.5t91.5 73t91.5 46.5t81 25.5q-109 45 -170.5 114.5t-61.5 182.5q0 72 30 138t88 121t157 88t225 34q109 0 192 -26.5t131 -72t71.5 -100t23.5 -116.5q0 -77 -33.5 -145.5t-84.5 -113t-105.5 -72.5t-102.5 -34v-4q109 -38 159 -70 q146 -91 146 -257q0 -191 -153 -307.5t-398 -116.5q-213 0 -342 95t-129 259zM287 360q0 -112 89 -179.5t249 -67.5q182 0 288.5 81.5t106.5 215.5q0 36 -10.5 66.5t-25.5 53t-43.5 44t-52 35t-65 29.5t-68 24.5t-73.5 23.5q-30 -4 -57.5 -9.5t-69 -18t-76 -27.5t-71.5 -41 t-62.5 -57t-42 -76t-16.5 -97zM412 1047q0 -203 297 -259q84 17 156 53.5t122.5 101t50.5 144.5q0 89 -73 148t-217 59q-163 -1 -249.5 -71.5t-86.5 -175.5z" />
<glyph unicode="9" horiz-adv-x="1251" d="M182 922q0 217 151.5 358t393.5 141q233 0 365.5 -147.5t132.5 -444.5q0 -210 -50 -372t-140.5 -264.5t-213 -154.5t-272.5 -52q-63 0 -123.5 12.5t-98 27t-75 36.5t-47 29.5t-21.5 17.5l90 106q8 -10 36 -30.5t100 -46t153 -25.5q202 0 332 134.5t168 418.5 q-26 -21 -60.5 -40.5t-90.5 -43t-134.5 -38t-165.5 -14.5q-206 0 -318 107t-112 285zM324 942q0 -123 87 -203t234 -80q81 0 157.5 17t132 44.5t86.5 46.5t54 38q10 251 -86 370t-276 119q-179 0 -284 -99.5t-105 -252.5z" />
<glyph unicode=":" horiz-adv-x="450" d="M137 74q0 42 32.5 73t74.5 31q38 0 63 -25.5t25 -62.5q0 -42 -33 -73t-76 -31q-37 0 -61.5 25.5t-24.5 62.5zM225 907q0 43 32 74t75 31q37 0 61.5 -25.5t24.5 -62.5q0 -43 -32 -74t-75 -31q-37 0 -61.5 25.5t-24.5 62.5z" />
<glyph unicode=";" horiz-adv-x="479" d="M147 63q0 42 31 70.5t74 28.5q44 0 70 -30.5t26 -84.5q0 -192 -174 -258l-14 53q12 4 27.5 13.5t33 26t29.5 43t12 57.5l-4 14q-10 -10 -37 -10q-33 0 -53.5 21t-20.5 56zM227 866q0 43 32 74t75 31q37 0 62.5 -25.5t25.5 -62.5q0 -42 -33 -73.5t-76 -31.5 q-37 0 -61.5 25.5t-24.5 62.5z" />
<glyph unicode="&#x3c;" horiz-adv-x="776" d="M193 721l8 82l495 422l80 -95l-416 -368l338 -369l-100 -94z" />
<glyph unicode="=" horiz-adv-x="1046" d="M170 203l14 129h748l-14 -129h-748zM221 682l12 129h748l-12 -129h-748z" />
<glyph unicode="&#x3e;" horiz-adv-x="776" d="M160 393l415 369l-337 368l100 95l405 -422l-8 -82l-495 -422z" />
<glyph unicode="?" horiz-adv-x="1042" d="M184 1098l6 49q9 73 42 140.5t90 126t148.5 93.5t203.5 35q197 0 302 -105.5t105 -279.5q0 -100 -37.5 -189t-92 -149t-121 -106.5t-121 -70t-95.5 -32.5l-22 -217h-123l31 297q49 0 106 18t115 56t105.5 90.5t77.5 129t30 163.5q0 123 -70.5 195.5t-199.5 72.5 q-149 0 -231.5 -84t-98.5 -217l-2 -16h-148zM403 72q0 44 31 75t74 31q37 0 61.5 -25.5t24.5 -62.5q0 -44 -32 -74t-75 -30q-37 0 -60.5 24.5t-23.5 61.5z" />
<glyph unicode="@" horiz-adv-x="2117" d="M137 422q0 169 48 330t142.5 298.5t224 241t303 162.5t368.5 59q175 0 319.5 -44t244 -119.5t167.5 -179.5t99.5 -222t31.5 -248q0 -146 -31.5 -266.5t-86 -202.5t-129 -138t-157.5 -81.5t-174 -25.5q-89 0 -126.5 43.5t-32.5 101.5l2 16h-4l-1 -1q-8 -11 -18 -23 t-41.5 -39t-68 -46.5t-96.5 -35.5t-126 -16q-172 0 -284.5 115.5t-112.5 318.5q0 126 40.5 231.5t110 174.5t161 107t194.5 38q63 0 117.5 -15.5t87.5 -38t57 -45t34 -38.5l9 -15h6l39 137h102l-79 -766q-11 -94 71 -94q187 0 294.5 151t107.5 441q0 148 -44.5 273.5 t-132.5 223.5t-232.5 154t-330.5 56q-138 0 -265 -36t-229.5 -100t-186 -153t-140 -195.5t-87 -227.5t-30.5 -247q0 -107 22.5 -202t56 -163t85 -128t97.5 -98.5t105.5 -72.5t97 -51t83.5 -34l-82 -107q-152 65 -241 126q-359 246 -359 716zM733 432q0 -158 89 -244t210 -86 q65 0 121 15.5t94 40.5t60.5 46t38.5 42l47 444q-36 79 -113 121.5t-170 42.5q-72 0 -138.5 -26.5t-120.5 -77t-86 -133t-32 -185.5z" />
<glyph unicode="A" horiz-adv-x="1488" d="M-6 0l12 115h158l590 1181h-170l12 113h381l381 -1294h158l-13 -115h-477l12 115h170q-51 165 -106 368h-613l-182 -368h170l-12 -115h-471zM549 604h518l-164 576l-22 75h-13q-24 -61 -30 -75z" />
<glyph unicode="B" horiz-adv-x="1368" d="M90 0l12 113h187l125 1183h-189l13 113h632q213 0 318.5 -85.5t105.5 -238.5q0 -51 -11 -96t-26 -76t-40.5 -59t-45.5 -44t-49.5 -32.5t-43 -22t-36.5 -14.5v-8q29 -5 57 -13t70.5 -30t73.5 -52t53.5 -83.5t22.5 -120.5q0 -201 -143.5 -317.5t-423.5 -116.5h-662z M430 121h338q195 0 299 78.5t104 228.5q0 117 -88.5 177.5t-248.5 60.5h-347zM500 782h346q71 0 138 29.5t115 95.5t48 156q0 53 -16.5 93.5t-42.5 64.5t-63 40t-73.5 21.5t-77.5 5.5h-321z" />
<glyph unicode="C" horiz-adv-x="1355" d="M172 588q0 205 51.5 364.5t145.5 261.5t222.5 154.5t285.5 52.5q152 0 266 -53.5t172 -157.5q46 -83 46 -187q0 -27 -3 -56l-6 -58h-142l4 45q2 20 2 39q0 134 -88 212q-100 89 -264 89q-121 0 -218.5 -41t-171.5 -124t-114.5 -219t-40.5 -316q0 -251 111.5 -366 t310.5 -115q375 0 410 319h143l-2 -18q-23 -205 -172.5 -316.5t-398.5 -111.5q-259 0 -404 151.5t-145 450.5z" />
<glyph unicode="D" horiz-adv-x="1490" d="M90 0l12 113h187l125 1183h-189l13 113h571q321 0 489 -151t168 -457q0 -401 -202.5 -601t-573.5 -200h-600zM430 121h254q170 0 293.5 46t198.5 135t110 210t35 279q0 243 -129.5 370t-411.5 127h-227z" />
<glyph unicode="E" horiz-adv-x="1277" d="M90 0l12 113h185l125 1183h-185l11 113h1075l-31 -342h-115l23 221h-639l-53 -516h538l-12 -119h-539l-57 -532h639l23 219h114l-43 -340h-1071z" />
<glyph unicode="F" horiz-adv-x="1232" d="M90 0l12 113h185l125 1183h-185l11 113h1075l-31 -342h-115l23 221h-639l-53 -516h538l-12 -119h-539l-57 -540h330l-13 -113h-655z" />
<glyph unicode="G" horiz-adv-x="1374" d="M172 588q0 205 51.5 364.5t145.5 261.5t222.5 154.5t285.5 52.5q233 0 369 -120q117 -104 117 -272q0 -26 -3 -54l-6 -66h-144q2 38 4 52q3 25 3 49q0 52 -16 96q-24 65 -73.5 105.5t-117 61.5t-146.5 21q-121 0 -218.5 -41t-171.5 -124t-114.5 -219t-40.5 -316 q0 -251 113 -366t313 -115q378 0 418 360l8 76h-413l12 121h557l-20 -195q-24 -237 -177 -363t-405 -126q-260 0 -406.5 151.5t-146.5 450.5z" />
<glyph unicode="H" horiz-adv-x="1652" d="M90 0l12 113h187l123 1181h-187l13 115h514l-13 -115h-186l-55 -542h817l55 542h-186l12 115h516l-12 -115h-189l-122 -1181h188l-12 -113h-516l12 113h186l53 518h-817l-53 -518h186l-12 -113h-514z" />
<glyph unicode="I" horiz-adv-x="694" d="M90 0l12 113h187l123 1181h-187l13 115h514l-13 -115h-186l-123 -1181h186l-12 -113h-514z" />
<glyph unicode="J" horiz-adv-x="679" d="M-8 -356q130 40 200.5 128t88.5 257l133 1265h-187l13 115h516l-13 -115h-186l-133 -1269q-13 -118 -50.5 -211.5t-93.5 -153.5t-121.5 -95.5t-140.5 -49.5z" />
<glyph unicode="K" horiz-adv-x="1474" d="M90 0l12 117h187l123 1175h-187l13 117h503l-12 -117h-176l-57 -559h297l444 559h-176l12 117h514l-12 -117h-176l-490 -604l389 -575h142l-13 -113h-231l-416 614h-297l-53 -497h199l-13 -117h-526z" />
<glyph unicode="L" horiz-adv-x="1185" d="M90 0l12 113h187l123 1181h-187l13 115h512l-13 -115h-184l-123 -1173h606l27 244h115l-48 -365h-1040z" />
<glyph unicode="M" horiz-adv-x="1925" d="M68 0l12 113h184l193 1181h-189l13 115h387l256 -848q9 -29 25 -94t28 -115l12 -51h12q88 194 123 260l437 848h376l-12 -115h-186l-53 -1181h184l-12 -113h-500l12 113h174l45 1079h-4l-547 -1081h-127l-321 1081h-6l-178 -1079h174l-13 -113h-499z" />
<glyph unicode="N" horiz-adv-x="1671" d="M90 0l12 113h187l123 1181h-187l13 115h344l702 -1208h6l115 1093h-184l12 115h514l-12 -115h-189l-135 -1294h-170l-692 1188h-6l-113 -1075h186l-12 -113h-514z" />
<glyph unicode="O" d="M172 586q0 206 50.5 366t143.5 262t221 154.5t285 52.5q258 0 402.5 -155t144.5 -459q0 -204 -50.5 -361.5t-143 -257.5t-219.5 -151t-285 -51q-260 0 -404.5 151t-144.5 449zM319 592q0 -479 416 -479q122 0 217.5 37.5t168.5 117t112 214t39 317.5q0 253 -109 374 t-305 121q-119 0 -215.5 -41t-170 -124t-113.5 -219.5t-40 -317.5z" />
<glyph unicode="P" horiz-adv-x="1271" d="M90 0l12 113h187l123 1181h-187l13 115h624q197 0 319 -101t122 -286q0 -234 -146 -362t-409 -128h-275l-43 -419h232l-13 -113h-559zM487 653h271q190 0 293.5 87t103.5 270q0 142 -92.5 210t-237.5 68h-272z" />
<glyph unicode="Q" d="M172 586q0 206 50.5 366t143.5 262t221 154.5t285 52.5q258 0 402.5 -155t144.5 -459q0 -382 -169 -589t-464 -228q1 -116 85 -179.5t243 -91.5l-61 -127q-194 24 -299 140q-96 104 -96 230q0 13 1 26q-231 15 -359 166.5t-128 431.5zM319 592q0 -479 416 -479 q122 0 217.5 37.5t168.5 117t112 214t39 317.5q0 253 -109 374t-305 121q-119 0 -215.5 -41t-170 -124t-113.5 -219.5t-40 -317.5z" />
<glyph unicode="R" horiz-adv-x="1368" d="M90 0l12 113h187l123 1181h-187l13 115h657q197 0 319.5 -100t122.5 -283q0 -193 -102 -311t-266 -152l-2 -8q22 -18 32 -43l183 -399h147l-12 -113h-240l-243 537h-359l-45 -424h232l-13 -113h-559zM487 657h328q375 0 375 353q0 96 -47 160.5t-119.5 91t-167.5 26.5 h-303z" />
<glyph unicode="S" horiz-adv-x="1189" d="M150 311q0 16 3 44t6 49l3 20h141q-4 -45 -6 -57q-3 -19 -3 -37q0 -90 72 -148q86 -70 234 -69q191 0 290 66.5t99 193.5q0 64 -33.5 112.5t-87.5 76.5t-123.5 54.5t-142.5 46t-142.5 50t-123.5 67t-87.5 98.5t-33.5 142q0 107 59.5 197t179.5 147t279 57q223 0 338 -97 q97 -82 97 -211q0 -23 -3 -48l-6 -70h-143q2 29 4 45q2 17 2 33q0 87 -60 148q-71 73 -241 73q-158 0 -257 -72.5t-99 -183.5q0 -67 42.5 -115t111 -77t151 -53.5t165 -54t151 -69t111 -108t42.5 -162.5q0 -85 -32.5 -158t-97.5 -131t-172.5 -91t-246.5 -33 q-217 0 -328.5 93.5t-111.5 231.5z" />
<glyph unicode="T" horiz-adv-x="1331" d="M160 1067l43 342h1222l-30 -342h-115l23 221h-431l-122 -1175h188l-12 -113h-516l12 113h186l123 1175h-432l-23 -221h-116z" />
<glyph unicode="U" horiz-adv-x="1550" d="M197 1294l12 115h514l-12 -115h-189l-80 -766q-5 -44 -6 -84q0 -44 8 -84q12 -74 50 -130.5t111.5 -86.5t180.5 -30q202 0 307.5 107t125.5 298l81 776h-186l12 115h512l-12 -115h-186l-80 -764q-29 -270 -178 -407t-408 -137q-260 0 -381 137q-98 111 -98 308q0 47 6 99 l80 764h-184z" />
<glyph unicode="V" horiz-adv-x="1495" d="M129 1294l12 115h482l-13 -115h-170l303 -1058l17 -82h12q31 76 35 82l524 1058h-170l13 115h475l-13 -115h-155l-652 -1294h-163l-381 1294h-156z" />
<glyph unicode="W" horiz-adv-x="2072" d="M133 1294l12 115h482l-13 -115h-170l209 -1058l15 -82h12q23 74 27 82l423 1173h115l172 -1173l6 -82h13q32 76 34 82l433 1058h-170l12 115h477l-12 -115h-158l-553 -1294h-174l-158 1114q-4 32 -4 49h-10q0 -21 -12 -49l-398 -1114h-174l-278 1294h-158z" />
<glyph unicode="X" horiz-adv-x="1507" d="M41 0l12 113h180l502 583l-381 598h-178l12 115h519l-13 -115h-180l324 -514l428 514h-181l13 115h516l-12 -115h-179l-505 -598l380 -583h181l-13 -113h-516l13 113h176l-324 495l-424 -495h176l-12 -113h-514z" />
<glyph unicode="Y" horiz-adv-x="1370" d="M133 1294l12 115h486l-13 -115h-169l301 -614h14l436 614h-172l12 115h482l-13 -115h-159l-537 -745l-47 -436h190l-10 -113h-520l10 113h187l47 436l-379 745h-158z" />
<glyph unicode="Z" horiz-adv-x="1286" d="M102 0l11 102l1022 1186h-785l-22 -221h-113l39 342h1079l-10 -102l-1024 -1186h784l25 221h115l-43 -342h-1078z" />
<glyph unicode="[" horiz-adv-x="667" d="M121 -594l227 2161h430l-12 -123h-291l-203 -1913h291l-12 -125h-430z" />
<glyph unicode="\" horiz-adv-x="778" d="M225 1602l129 36l348 -1802l-129 -39z" />
<glyph unicode="]" horiz-adv-x="669" d="M-4 -594l12 125h291l203 1913h-291l12 123h430l-227 -2161h-430z" />
<glyph unicode="^" horiz-adv-x="837" d="M238 1165l254 381h182l172 -381h-105l-172 267l-225 -267h-106z" />
<glyph unicode="_" horiz-adv-x="1116" d="M117 -170l14 129h848l-14 -129h-848z" />
<glyph unicode="`" horiz-adv-x="475" d="M207 1473h186l158 -375h-105z" />
<glyph unicode="a" horiz-adv-x="1089" d="M115 238q0 139 124 213.5t336 74.5h254l11 86q3 24 3 46q-1 93 -53 141q-64 59 -204 59q-124 0 -197.5 -53t-81.5 -139l-2 -25h-125l4 45q10 116 120.5 200.5t297.5 84.5q198 1 296 -91q81 -76 81 -215q0 -28 -4 -59l-51 -493h114l-12 -113h-219l4 162h-4q-4 -7 -13 -19 t-42.5 -42.5t-74 -53.5t-109.5 -42t-148 -19q-137 0 -221 71t-84 181zM252 246q0 -69 57 -110.5t148 -41.5q65 0 124.5 18t98 44t68 52t42.5 44l13 18l16 156h-244q-143 0 -233 -45.5t-90 -134.5z" />
<glyph unicode="b" horiz-adv-x="1167" d="M170 0l149 1415h-143l10 113h281l-66 -623l-12 -71h4l1 1q56 68 159 106q83 30 182 30q170 0 281.5 -115.5t111.5 -318.5q0 -130 -39 -235t-106.5 -173.5t-157.5 -105.5t-194 -37q-65 0 -121.5 16t-90.5 39t-58.5 46.5t-34.5 39.5l-9 16h-6l-39 -143h-102zM336 264 q33 -77 110.5 -119.5t169.5 -42.5q73 0 139.5 26.5t120 77t85.5 133t32 185.5q0 81 -26 146t-68.5 104t-94.5 59.5t-108 20.5q-65 0 -120.5 -15.5t-94 -41t-61 -46t-39.5 -42.5z" />
<glyph unicode="c" horiz-adv-x="1052" d="M139 420q0 266 143 408.5t386 142.5q107 0 185.5 -28t120.5 -76q42 -49 58 -109q9 -37 10 -76q0 -26 -4 -53l-6 -49h-127q2 12 4 32q2 17 2 33q1 91 -53 145q-62 64 -203 64q-177 0 -278 -101.5t-101 -320.5q0 -159 91.5 -244.5t228.5 -85.5q64 0 120.5 11t92.5 27 t63 31.5t38 26.5l12 11l39 -98q-5 -5 -14.5 -13.5t-44.5 -30t-75.5 -38t-108.5 -30t-143 -13.5q-198 0 -317 115t-119 319z" />
<glyph unicode="d" horiz-adv-x="1196" d="M139 416q0 129 41.5 236t111 175.5t159.5 106t188 37.5q69 0 127 -14t90.5 -33.5t55 -40.5t30.5 -34t8 -15h4q0 61 2 71l54 510h-148l12 113h285l-149 -1415h143l-12 -113h-246l-6 143h-8q-5 -6 -14 -17t-41 -38t-68.5 -47.5t-97 -37.5t-125.5 -17q-178 0 -287 113 t-109 317zM276 430q0 -158 85 -243t214 -85q90 0 176 41.5t138 118.5l47 447q-11 21 -29 41.5t-50.5 46t-86 41.5t-119.5 16t-130 -26t-120 -75.5t-90.5 -133.5t-34.5 -189z" />
<glyph unicode="e" horiz-adv-x="1071" d="M137 422q0 128 42 233t115 173.5t170 105.5t208 37q166 0 271.5 -111t105.5 -282q0 -36 -5.5 -70t-11.5 -50l-6 -16h-752v-19q0 -75 22 -133q24 -66 69.5 -106.5t104 -61t126.5 -20.5q63 0 119.5 11t92.5 27t62.5 31.5t37.5 26.5l12 11l41 -98q-5 -5 -14.5 -13.5t-45 -30 t-76.5 -38t-109 -30t-143 -13.5q-197 0 -316.5 115t-119.5 321zM285 545h630q2 23 2 45q0 52 -13 96q-19 62 -58 97t-86 53t-98 18q-136 0 -242.5 -81.5t-134.5 -227.5z" />
<glyph unicode="f" horiz-adv-x="704" d="M78 0l12 113h143l76 733h-147l12 110h148l26 256q17 163 107 248.5t237 85.5q44 0 83.5 -7.5t56.5 -14.5l18 -8l-12 -117q-54 31 -140 31q-91 0 -146 -55t-67 -167l-26 -252h303l-12 -110h-304l-75 -733h211l-13 -113h-491z" />
<glyph unicode="g" horiz-adv-x="1198" d="M61 -430l72 92q3 -5 9.5 -13.5t32.5 -30t59 -38t92.5 -30t128.5 -13.5q76 0 140.5 19.5t120 61t91.5 115t47 173.5l16 143l11 72h-7q-4 -7 -16 -19t-41.5 -33.5t-66 -39t-94 -30.5t-121.5 -13q-171 0 -282.5 115.5t-111.5 318.5q0 129 39 234.5t107 174t158.5 105.5 t193.5 37q65 0 121.5 -16.5t90 -40t58 -47t33.5 -39.5l10 -17h6l39 145h246l-12 -112h-144l-98 -938q-13 -127 -61 -222t-121.5 -152t-163.5 -84.5t-197 -27.5q-80 0 -149.5 15.5t-111 37.5t-71 44t-41.5 37zM276 432q0 -81 26 -146t68.5 -104t94.5 -59.5t108 -20.5 q65 0 121 15.5t94.5 40.5t61 45.5t39.5 42.5l45 444q-34 79 -111.5 121.5t-169.5 42.5q-73 0 -139.5 -26.5t-120 -77t-85.5 -133t-32 -185.5z" />
<glyph unicode="h" horiz-adv-x="1210" d="M57 0l13 113h143l137 1302h-143l10 113h281l-58 -557l-30 -191h6q3 8 9 21t33 45.5t62.5 58t100.5 46t143 20.5q182 0 263 -102q66 -83 67 -213q0 -29 -4 -60l-52 -483h142l-13 -113h-278l61 578q3 26 3 50q0 224 -230 224q-66 0 -123 -21.5t-90 -49.5t-59.5 -63.5 t-35 -54t-12.5 -30.5l-53 -520h139l-12 -113h-420z" />
<glyph unicode="i" horiz-adv-x="567" d="M82 0l12 113h144l75 731h-143l12 112h281l-88 -843h139l-12 -113h-420zM319 1331q0 51 36.5 87t86.5 36q43 0 72 -29.5t29 -72.5q0 -51 -37 -86t-88 -35q-43 0 -71 28.5t-28 71.5z" />
<glyph unicode="j" horiz-adv-x="514" d="M-55 -451q106 39 170 99.5t75 165.5l107 1030h-143l12 112h280l-122 -1165q-16 -146 -113.5 -237.5t-235.5 -131.5zM303 1331q0 51 36.5 87t86.5 36q44 0 72 -29.5t28 -72.5q0 -52 -36.5 -86.5t-88.5 -34.5q-43 0 -70.5 28.5t-27.5 71.5z" />
<glyph unicode="k" horiz-adv-x="1179" d="M57 0l13 113h143l137 1302h-143l10 113h281l-103 -973h248l272 291h-118l12 110h420l-12 -110h-152l-326 -350l267 -385h145l-12 -111h-219l-302 444h-233l-35 -331h139l-12 -113h-420z" />
<glyph unicode="l" horiz-adv-x="548" d="M63 0l13 113h143l137 1302h-143l10 113h281l-148 -1415h140l-13 -113h-420z" />
<glyph unicode="m" horiz-adv-x="1878" d="M76 0l12 113h143l76 731h-143l12 112h250l-8 -190h4q2 4 5 11.5t16.5 29t30.5 40.5t47 43t65.5 41t87 28.5t110.5 11.5q237 0 301 -183q11 20 24.5 38.5t43.5 46.5t66.5 48t94 35t124.5 15q179 0 259 -102q65 -83 66 -213q0 -29 -4 -60l-51 -483h143l-12 -113h-280 l61 578q3 27 3 52q0 222 -228 222q-107 0 -178.5 -47.5t-108.5 -110.5l2 -38q0 -31 -4 -60l-51 -483h143l-12 -113h-281l62 578q3 25 3 48q0 94 -43 152q-53 74 -186 74q-69 0 -127.5 -23t-92.5 -55t-57.5 -64.5t-32.5 -55.5l-9 -23l-53 -518h139l-12 -113h-420z" />
<glyph unicode="n" horiz-adv-x="1224" d="M76 0l12 113h143l76 731h-143l12 112h250l-8 -190h4q2 4 5 11.5t16.5 29t30.5 40.5t47 43t65.5 41t87 28.5t110.5 11.5q180 -1 260 -103q66 -84 66 -212q0 -29 -4 -60l-51 -483h143l-12 -113h-281l62 578q3 25 3 48q0 94 -43 152q-53 74 -186 74q-69 0 -127.5 -23 t-92.5 -55t-57.5 -64.5t-32.5 -55.5l-9 -23l-53 -518h139l-12 -113h-420z" />
<glyph unicode="o" horiz-adv-x="1128" d="M137 420q0 128 43 234t116.5 174.5t169 105.5t202.5 37q186 0 306 -116.5t120 -319.5q0 -127 -41 -231.5t-112.5 -173.5t-168 -106.5t-207.5 -37.5q-194 0 -311 115t-117 319zM274 430q0 -159 87 -243.5t217 -84.5q72 0 138.5 26t120.5 76.5t86.5 133t32.5 186.5 q0 81 -26.5 146t-70 104t-96 59.5t-108.5 20.5q-66 0 -131.5 -26t-122.5 -75.5t-92 -133.5t-35 -189z" />
<glyph unicode="p" horiz-adv-x="1198" d="M-4 -569l12 112h144l137 1301h-146l13 112h245l11 -145h6q5 7 14 17.5t41 38t68.5 48.5t97 38.5t125.5 17.5q177 0 287 -113t110 -317q0 -129 -42.5 -236t-113 -175.5t-160.5 -106t-188 -37.5q-67 0 -123 14t-89 33.5t-56.5 40.5t-32 34t-8.5 15h-4q0 -62 -2 -72 l-55 -526h162l-11 -94h-442zM362 246q12 -22 28.5 -41.5t49 -45.5t85.5 -41.5t120 -15.5q66 0 131 26t121 75.5t90.5 133.5t34.5 189q0 158 -84.5 243t-212.5 85q-93 0 -179.5 -42.5t-135.5 -121.5z" />
<glyph unicode="q" horiz-adv-x="1169" d="M141 420q0 129 39 234.5t107 174t158.5 105.5t193.5 37q65 0 121.5 -16.5t90 -39.5t58 -46t33.5 -39l10 -17h6l39 143h103l-148 -1413h144l-13 -112h-442l12 112h162l53 508l15 72h-4l-1 -1q-56 -68 -159 -106q-83 -30 -182 -30q-83 0 -154.5 29t-125.5 83t-85 137 t-31 185zM276 432q0 -158 89 -244t210 -86q65 0 121 15.5t94 40.5t60.5 46t38.5 42l47 444q-35 79 -113 121.5t-170 42.5q-72 0 -138.5 -26.5t-120.5 -77t-86 -133t-32 -185.5z" />
<glyph unicode="r" horiz-adv-x="778" d="M76 0l12 113h143l76 731h-143l12 112h250l-14 -247h4q2 5 5 14.5t16 37t29 52t44 55t60.5 52t79.5 36.5t100 15q39 0 102 -10l-12 -132q-47 15 -107 15q-49 0 -93 -16t-75.5 -42t-58 -57t-43 -62.5t-28 -57.5t-16.5 -42l-5 -16l-45 -438h153l-12 -113h-434z" />
<glyph unicode="s" horiz-adv-x="972" d="M115 252l6 57h127q0 -8 -2 -20q-2 -14 -3 -27q0 -65 54 -110q64 -54 197 -54q141 0 210.5 45.5t69.5 126.5q0 35 -19.5 62t-57.5 44.5t-78.5 28.5t-96.5 21q-57 10 -97.5 19.5t-89.5 29t-79 45t-51 67t-21 93.5q0 134 113 212.5t283 78.5q194 0 278 -72q75 -64 75 -165 q0 -12 -1 -25l-6 -68h-129q2 31 4 45t2 27q-1 65 -47 101q-56 44 -185 44q-64 0 -118.5 -17t-92.5 -55.5t-38 -93.5q0 -26 9 -46.5t30.5 -35.5t40.5 -25.5t56 -20t59 -14.5t67 -13q57 -10 99.5 -21.5t87.5 -31.5t74 -45.5t47.5 -65t18.5 -88.5q0 -131 -106 -215t-322 -84 q-104 0 -181 22t-118 60.5t-58 84.5q-13 34 -13 72q0 13 2 27z" />
<glyph unicode="t" horiz-adv-x="692" d="M133 846l12 110h148l51 254h113l-27 -254h301l-12 -110h-301l-58 -539q-2 -21 -3 -41q1 -72 31 -112q38 -52 114 -52q45 0 88 8t64 16l20 7l-12 -117q-76 -30 -193 -30q-133 0 -198 80q-52 63 -52 172q0 29 4 61l58 547h-148z" />
<glyph unicode="u" horiz-adv-x="1208" d="M129 844l12 112h281l-62 -577q-3 -27 -2 -52q0 -223 228 -223q63 0 117 19.5t87 44.5t59.5 59.5t36.5 53.5t17 36l55 527h-139l12 112h277l-88 -843h143l-12 -113h-248l6 197h-4q-3 -9 -10 -23t-35 -50.5t-65 -64t-103.5 -50.5t-146.5 -23q-181 0 -261 102 q-66 83 -66 212q0 29 3 60l51 484h-143z" />
<glyph unicode="v" horiz-adv-x="1159" d="M102 844l13 112h401l-12 -112h-119l207 -682h10l352 682h-120l12 112h399l-12 -112h-139l-441 -844h-147l-264 844h-140z" />
<glyph unicode="w" horiz-adv-x="1593" d="M104 844l13 112h399l-12 -112h-119l141 -682h11l297 794h129l133 -794h8l282 682h-118l12 112h397l-12 -112h-139l-371 -844h-147l-127 764h-11l-284 -764h-148l-194 844h-140z" />
<glyph unicode="x" horiz-adv-x="1128" d="M45 0l12 113h121l352 366l-266 365h-131l12 112h412l-12 -112h-119l201 -279l260 279h-119l12 112h406l-12 -112h-134l-340 -361l277 -370h121l-13 -113h-413l12 113h131l-213 286l-270 -286h131l-12 -113h-406z" />
<glyph unicode="y" horiz-adv-x="1155" d="M-2 -455q158 58 301 180t217 259l16 30h-28l-262 830h-140l11 112h401l-10 -112h-119l207 -682h10l352 682h-120l10 112h399l-10 -112h-139l-457 -879q-36 -70 -88 -141t-126 -147t-175.5 -143t-216.5 -112z" />
<glyph unicode="z" horiz-adv-x="1069" d="M102 0l13 125l770 721h-588l-18 -184h-107l31 294h866l-10 -104l-785 -741h603l18 190h104l-30 -301h-867z" />
<glyph unicode="{" horiz-adv-x="622" d="M102 436l11 103h22q45 0 103 68t69 175l49 482q9 83 40 143.5t78 94.5t101.5 49.5t118.5 15.5h27l-12 -123h-27q-86 0 -131 -43.5t-55 -138.5l-50 -478q-5 -51 -23.5 -98t-41.5 -77.5t-45.5 -54t-37.5 -34.5l-15 -10l-7 -47q5 -4 13.5 -11t29 -33t35 -55.5t24.5 -77 t5 -98.5l-49 -477q-9 -93 25.5 -134.5t121.5 -41.5h27l-14 -123h-27q-64 0 -115 15t-91 48t-57.5 93t-8.5 143l49 479q11 106 -31.5 176t-87.5 70h-23z" />
<glyph unicode="|" horiz-adv-x="489" d="M115 -586l225 2142h133l-225 -2142h-133z" />
<glyph unicode="}" horiz-adv-x="622" d="M4 -588l12 123h25q88 0 132.5 41.5t53.5 134.5l52 477q5 51 23.5 98t41.5 78t45.5 54.5t37.5 33.5l15 11l4 47q-5 4 -13.5 11t-28.5 33t-35 55t-24.5 76.5t-4.5 98.5l51 478q9 95 -26 138.5t-123 43.5h-25l14 123h25q137 0 214 -71.5t60 -231.5l-51 -482 q-11 -107 32.5 -175t88.5 -68h21l-11 -103h-20q-45 0 -103 -70t-69 -176l-51 -479q-9 -83 -39.5 -143t-78 -93t-101.5 -48t-119 -15h-25z" />
<glyph unicode="~" horiz-adv-x="1024" d="M246 961q31 66 85 108.5t130 42.5q56 0 113 -24.5t109 -49t97 -24.5q40 0 71.5 20t72.5 64l67 -45q-32 -67 -85.5 -110.5t-129.5 -43.5q-55 0 -113.5 25t-111 50t-94.5 25q-40 0 -73 -20.5t-73 -63.5z" />
<glyph unicode="&#xa1;" horiz-adv-x="475" d="M104 -586l142 1200h114l-112 -1200h-144zM233 868q0 41 32 72t73 31q36 0 60 -25t24 -61q0 -43 -31 -73t-74 -30q-35 0 -59.5 24.5t-24.5 61.5z" />
<glyph unicode="&#xa2;" horiz-adv-x="1099" d="M172 606q0 248 127.5 389t351.5 156l17 152h116l-16 -152q176 -13 251 -106.5t62 -231.5l-6 -68h-129l6 50q14 116 -50.5 181.5t-209.5 65.5q-177 0 -280 -103.5t-103 -320.5q0 -162 92.5 -248.5t231.5 -86.5q64 0 122 11.5t94.5 27.5t64 32t39.5 28l12 11l39 -98 q-4 -4 -13 -11.5t-40 -27t-67 -35.5t-95 -30.5t-123 -18.5l-19 -174h-117l19 176q-173 18 -275 131.5t-102 300.5z" />
<glyph unicode="&#xa3;" horiz-adv-x="1232" d="M106 0l11 106q21 9 49 24.5t67.5 44t74 61t65.5 78t45 92.5h-256l12 114h252q-8 45 -36 100.5t-56.5 100t-51 108.5t-22.5 127q0 143 69 249t189.5 161t276.5 55q213 0 330.5 -103t97.5 -278l-6 -53h-142l4 35q14 121 -68.5 196.5t-234.5 75.5q-74 0 -138.5 -19 t-118 -57.5t-85 -105.5t-31.5 -156q0 -57 23.5 -118t52.5 -105.5t57 -103t35 -109.5h396l-13 -114h-391q-27 -89 -97 -171t-147 -122h818l-13 -113h-1018z" />
<glyph unicode="&#xa4;" horiz-adv-x="1337" d="M158 162l174 180q-99 123 -99 311q0 255 177 422l-138 180l72 58l137 -178q143 92 316 92q170 0 293 -94l174 180l59 -58l-174 -180q98 -122 98 -307q0 -256 -178 -426l139 -180l-71 -56l-140 181q-135 -97 -311 -97q-172 0 -295 93l-174 -177zM373 666q0 -162 93 -260.5 t232 -98.5q79 0 153.5 32t132 88.5t92 141.5t34.5 185q0 161 -95.5 258.5t-230.5 97.5q-77 0 -150 -31t-131.5 -87t-94 -141t-35.5 -185z" />
<glyph unicode="&#xa5;" horiz-adv-x="1490" d="M195 1294l12 115h485l-12 -115h-170l301 -614h14l437 614h-172l12 115h481l-12 -115h-160l-360 -499h206l-12 -115h-276l-95 -131l-4 -43h287l-12 -113h-287l-31 -280h191l-10 -113h-521l11 113h186l31 280h-293l12 113h293l4 43l-67 131h-277l12 115h207l-254 499h-157z " />
<glyph unicode="&#xa6;" horiz-adv-x="495" d="M119 -586l98 930h133l-98 -930h-133zM246 631l98 925h133l-98 -925h-133z" />
<glyph unicode="&#xa7;" horiz-adv-x="1144" d="M96 -262q0 16 3 45t7 49l3 21h143q-4 -46 -6 -58q-17 -115 57.5 -184.5t208.5 -69.5q176 0 266 67.5t90 194.5q0 56 -24 100t-65 72.5t-94 52t-111.5 43t-117 40t-111.5 49t-94 65t-65 92.5t-24 127q0 98 47.5 183t136.5 141q-123 91 -123 248q0 81 33 153.5t93.5 129 t155.5 89.5t210 33q204 0 308 -97t83 -259l-8 -70h-144q2 29 4 45q6 50 -4.5 94t-38.5 81t-83 58t-130 21q-149 0 -240 -73t-91 -185q0 -52 24 -92.5t65 -67.5t94 -48.5t111.5 -41t117 -40t111.5 -50t94 -67.5t65 -95.5t24 -130.5q0 -101 -43 -185t-129 -140 q111 -93 111 -246q0 -86 -31 -160t-92.5 -132.5t-161.5 -92t-229 -33.5q-103 0 -183 26.5t-127.5 72t-71.5 102.5t-24 123zM311 465q0 -48 21 -87t53.5 -63.5t83 -48t96.5 -38t108.5 -36t104.5 -40.5q152 59 152 223q0 50 -20.5 90.5t-49 66.5t-78.5 50.5t-91 39t-104.5 36 t-101.5 36.5q-82 -31 -128 -91t-46 -138z" />
<glyph unicode="&#xa8;" horiz-adv-x="618" d="M176 1169q0 41 30 70t70 29q35 0 58.5 -23.5t23.5 -58.5q0 -41 -30 -70t-70 -29q-35 0 -58.5 23.5t-23.5 58.5zM506 1169q0 41 29.5 70t70.5 29q34 0 58 -23.5t24 -58.5q0 -40 -30.5 -69.5t-69.5 -29.5q-36 0 -59 23t-23 59z" />
<glyph unicode="&#xa9;" horiz-adv-x="1435" d="M182 664q0 172 95.5 324.5t252 242.5t328.5 90q152 0 278 -75.5t197.5 -203.5t71.5 -280q0 -129 -57 -251t-149.5 -210.5t-216.5 -142.5t-253 -54q-151 0 -277.5 75.5t-198 204t-71.5 280.5zM254 666q0 -206 138 -348t345 -142q155 0 292.5 78.5t220.5 214t83 291.5 q0 206 -138 347.5t-345 141.5q-155 0 -292.5 -78.5t-220.5 -213.5t-83 -291zM449 680q0 120 55.5 213t142.5 139.5t187 46.5q55 0 102 -14t75 -33t51 -45t32 -42t16 -32l-80 -51q-53 119 -207 119q-51 0 -98 -18t-85.5 -52.5t-61.5 -92t-23 -130.5q0 -113 61 -172t156 -59 q52 0 92 10.5t68 32.5t39.5 34.5t29.5 36.5l68 -47q-112 -166 -311 -166q-132 0 -220.5 87t-88.5 235z" />
<glyph unicode="&#xaa;" horiz-adv-x="788" d="M215 1034q0 87 78.5 132.5t210.5 45.5h145l4 48q7 76 -28.5 109.5t-116.5 33.5q-70 0 -110.5 -28.5t-45.5 -74.5l-2 -22h-86l4 37q8 70 73.5 119t178.5 49q121 0 179.5 -54.5t48.5 -166.5l-25 -252q-6 -52 27 -52q8 0 15 2t10 4l3 1l-8 -74q-12 -8 -55 -8q-84 0 -74 94v6 h-4q-3 -4 -8.5 -11t-26.5 -24t-45.5 -30t-66 -24t-87.5 -11q-84 0 -136 42.5t-52 108.5zM309 1044q0 -38 33.5 -63t85.5 -25q39 0 74.5 10.5t57.5 24.5t40 30.5t24.5 25.5t8.5 12l8 84h-141q-85 0 -138 -24t-53 -75z" />
<glyph unicode="&#xab;" horiz-adv-x="962" d="M150 440l10 103l327 338l88 -76l-296 -313l231 -314l-104 -76zM526 440l11 103l327 338l88 -76l-297 -313l232 -314l-105 -76z" />
<glyph unicode="&#xac;" horiz-adv-x="1255" d="M207 674l12 117h981l-53 -502h-133l41 385h-848z" />
<glyph unicode="&#xad;" horiz-adv-x="948" d="M190 535l15 127h678l-15 -127h-678z" />
<glyph unicode="&#xae;" horiz-adv-x="1435" d="M182 664q0 172 95.5 324.5t252 242.5t328.5 90q152 0 278 -75.5t197.5 -203.5t71.5 -280q0 -129 -57 -251t-149.5 -210.5t-216.5 -142.5t-253 -54q-151 0 -277.5 75.5t-198 204t-71.5 280.5zM254 666q0 -206 138 -348t345 -142q155 0 292.5 78.5t220.5 214t83 291.5 q0 206 -138 347.5t-345 141.5q-155 0 -292.5 -78.5t-220.5 -213.5t-83 -291zM477 387l8 78h82l54 514h-82l8 78h282q101 0 162.5 -45t61.5 -135q0 -80 -42 -132t-120 -69q7 -10 33 -68l63 -143h72l-8 -78h-125l-119 277h-135l-21 -199h92l-8 -78h-258zM680 733h115 q166 0 166 129q0 56 -38 86.5t-104 30.5h-114z" />
<glyph unicode="&#xaf;" horiz-adv-x="794" d="M195 1112l12 117h641l-12 -117h-641z" />
<glyph unicode="&#xb0;" horiz-adv-x="550" d="M223 995q0 78 52 131.5t122 53.5q61 0 101.5 -42.5t40.5 -105.5q0 -86 -52.5 -135t-124.5 -49q-60 0 -99.5 38.5t-39.5 108.5zM293 1004q0 -40 23 -63t55 -23q39 0 68.5 28.5t29.5 79.5q0 38 -23 61t-57 23q-39 0 -67.5 -28.5t-28.5 -77.5z" />
<glyph unicode="&#xb1;" horiz-adv-x="1220" d="M164 141l12 117h922l-13 -117h-921zM225 719l13 117h405l39 368h131l-39 -368h385l-12 -117h-385l-39 -359h-131l39 359h-406z" />
<glyph unicode="&#xb2;" horiz-adv-x="790" d="M221 707l10 88q9 4 24 11t59 29.5t84 47t88.5 61t83.5 73t59 81.5t24 88q0 57 -36 91t-99 34q-70 0 -110.5 -33t-45.5 -78l-2 -14h-110q0 13 2 33q8 81 79 141.5t199 60.5q122 0 184 -57.5t62 -155.5q0 -59 -23 -114.5t-60.5 -97t-78 -76t-81 -57.5t-65 -35t-34.5 -15 h297l-10 -106h-500z" />
<glyph unicode="&#xb3;" horiz-adv-x="749" d="M190 813l74 80l6 -9q7 -8 14.5 -17t23 -21t33.5 -21t46 -15.5t59 -6.5q77 0 121.5 32.5t44.5 84.5q0 42 -28.5 67t-87.5 25h-93l11 94h86q17 0 35.5 4.5t39.5 16t34.5 36.5t13.5 60q0 36 -29 62t-86 26q-65 0 -99.5 -25t-37.5 -59l-2 -19h-109q2 17 4 37q8 77 79.5 126.5 t176.5 49.5q116 0 172 -51.5t56 -126.5q0 -39 -13.5 -71.5t-33 -51t-39 -31.5t-32.5 -17l-14 -5v-6q5 -1 13 -3t28.5 -11.5t36 -23.5t28.5 -41.5t13 -61.5q0 -102 -81.5 -165t-217.5 -63q-49 0 -92 12t-69 27t-46.5 34.5t-27.5 30t-11 17.5z" />
<glyph unicode="&#xb4;" horiz-adv-x="571" d="M219 1098l238 375h184l-315 -375h-107z" />
<glyph unicode="&#xb5;" horiz-adv-x="1261" d="M158 -547l143 1391h-143l12 112h281l-64 -606q-11 -113 44 -179.5t183 -66.5q63 0 117.5 19.5t87 45t59.5 59.5t37 53t17 36l55 527h-139l12 112h277l-88 -843h143l-12 -113h-248l6 197h-4q-3 -9 -10 -23t-35.5 -50.5t-65 -64t-103.5 -50.5t-147 -23q-136 0 -219 61 l-61 -594h-135z" />
<glyph unicode="&#xb6;" horiz-adv-x="1275" d="M160 922q0 118 41.5 211.5t114 153t168 91t206.5 31.5h668l-12 -115h-187l-153 -1456h-113l154 1450h-142l-153 -1450h-109l74 694h-96q-223 0 -342 100t-119 290z" />
<glyph unicode="&#xb7;" horiz-adv-x="444" d="M193 578q0 41 30.5 70.5t71.5 29.5q35 0 58.5 -24.5t23.5 -59.5q0 -41 -30.5 -70.5t-70.5 -29.5q-36 0 -59.5 24t-23.5 60z" />
<glyph unicode="&#xb8;" horiz-adv-x="477" d="M29 -285l63 70q0 -3 12.5 -14t38.5 -22t54 -11q51 0 77.5 20.5t26.5 57.5q0 29 -20.5 47t-57.5 18q-15 0 -27.5 -3t-17.5 -6l-6 -3l-35 25l76 124h90l-45 -77q20 0 41.5 -5.5t44 -18.5t37 -39t14.5 -62q0 -75 -55.5 -117.5t-149.5 -42.5q-47 0 -87.5 15t-56.5 29z" />
<glyph unicode="&#xb9;" horiz-adv-x="702" d="M219 705l10 102h185l49 463l-176 -90l-37 80l244 147h92l-64 -600h164l-10 -102h-457z" />
<glyph unicode="&#xba;" horiz-adv-x="770" d="M221 1145q0 155 93.5 246.5t226.5 91.5q112 0 184 -71.5t72 -197.5q0 -153 -90.5 -242t-229.5 -89q-116 0 -186 69.5t-70 192.5zM313 1153q0 -92 49.5 -140t122.5 -48q87 0 152 63t65 178q0 93 -52 143t-120 50q-37 0 -74 -15t-69.5 -43t-53 -77.5t-20.5 -110.5z" />
<glyph unicode="&#xbb;" horiz-adv-x="962" d="M115 178l297 314l-232 313l105 76l256 -338l-13 -103l-325 -338zM492 178l296 314l-231 313l105 76l256 -338l-13 -103l-325 -338z" />
<glyph unicode="&#xbc;" horiz-adv-x="1476" d="M186 705l11 102h182l49 457l-172 -90l-39 86l246 147h94l-63 -600h161l-10 -102h-459zM311 0l1035 1530l94 -55l-1039 -1530zM862 172l8 80l381 450h133l-45 -426h88l-10 -104h-88l-18 -172h-115l18 172h-352zM1008 274h217l30 291z" />
<glyph unicode="&#xbd;" horiz-adv-x="1564" d="M186 705l11 102h182l49 457l-172 -90l-39 86l246 147h94l-63 -600h161l-10 -102h-459zM311 0l1035 1530l94 -55l-1039 -1530zM973 0l10 88q9 4 24 11t59 29.5t84 47t88.5 61t83.5 73t59 81.5t24 88q0 57 -36 91t-99 34q-70 0 -110.5 -32.5t-45.5 -77.5v-15h-113 q1 13 3 33q9 82 79.5 142.5t198.5 60.5q122 0 184 -57.5t62 -155.5q0 -70 -33.5 -135.5t-79 -109t-98.5 -79.5t-85 -52t-46 -20h297l-10 -106h-500z" />
<glyph unicode="&#xbe;" horiz-adv-x="1482" d="M166 813l74 80l6 -9q7 -8 14.5 -17t23 -21t33.5 -21t46 -15.5t59 -6.5q77 0 121.5 32.5t44.5 84.5q0 42 -29 67t-88 25h-92l10 94h86q17 0 35.5 4.5t39.5 16t34.5 36.5t13.5 60q0 36 -29 62t-86 26q-65 0 -99.5 -25t-37.5 -59l-2 -19h-108q2 17 4 37q8 77 79.5 126.5 t176.5 49.5q116 0 171.5 -51.5t55.5 -126.5q0 -39 -13.5 -71.5t-32.5 -51t-38.5 -31.5t-32.5 -17l-14 -5v-6q5 -1 13 -3t28.5 -11.5t36 -23.5t28.5 -41.5t13 -61.5q0 -102 -81.5 -165t-217.5 -63q-49 0 -92 12t-69 27t-46.5 34.5t-27.5 30t-11 17.5zM317 0l1037 1530l92 -55 l-1038 -1530zM868 172l9 80l380 450h134l-45 -426h88l-11 -104h-88l-18 -172h-115l19 172h-353zM1014 274h217l31 291z" />
<glyph unicode="&#xbf;" horiz-adv-x="1019" d="M49 -201q0 100 37.5 189t92.5 149t122 106.5t121.5 70t95.5 32.5l23 217h123l-31 -297q-50 0 -107 -18t-115 -56t-105 -90t-77 -128.5t-30 -163.5q0 -123 70.5 -196t199.5 -73q149 0 231.5 84t98.5 217l2 17h147l-6 -49q-7 -58 -28.5 -113t-61.5 -107t-94.5 -90.5 t-132 -62t-168.5 -23.5q-195 0 -301.5 106t-106.5 279zM539 866q0 44 31.5 74.5t74.5 30.5q37 0 61.5 -24.5t24.5 -61.5q0 -44 -31.5 -75.5t-74.5 -31.5q-37 0 -61.5 25.5t-24.5 62.5z" />
<glyph unicode="&#xc0;" horiz-adv-x="1488" d="M-6 0l12 115h158l590 1181h-170l12 113h381l381 -1294h158l-13 -115h-477l12 115h170q-51 165 -106 368h-613l-182 -368h170l-12 -115h-471zM549 604h518l-164 576l-22 75h-13q-24 -61 -30 -75zM645 1870h186l158 -375h-104z" />
<glyph unicode="&#xc1;" horiz-adv-x="1488" d="M-6 0l12 115h158l590 1181h-170l12 113h381l381 -1294h158l-13 -115h-477l12 115h170q-51 165 -106 368h-613l-182 -368h170l-12 -115h-471zM549 604h518l-164 576l-22 75h-13q-24 -61 -30 -75zM821 1493l238 375h184l-315 -375h-107z" />
<glyph unicode="&#xc2;" horiz-adv-x="1488" d="M-6 0l12 115h158l590 1181h-170l12 113h381l381 -1294h158l-13 -115h-477l12 115h170q-51 165 -106 368h-613l-182 -368h170l-12 -115h-471zM549 604h518l-164 576l-22 75h-13q-24 -61 -30 -75zM596 1495l252 375h180l174 -375h-104l-170 266l-228 -266h-104z" />
<glyph unicode="&#xc3;" horiz-adv-x="1488" d="M-6 0l12 115h158l590 1181h-170l12 113h381l381 -1294h158l-13 -115h-477l12 115h170q-51 165 -106 368h-613l-182 -368h170l-12 -115h-471zM549 604h518l-164 576l-22 75h-13q-24 -61 -30 -75zM551 1546q32 67 85.5 110.5t129.5 43.5q56 0 113 -24.5t109 -49t97 -24.5 q39 0 72 20t72 64l67 -48q-31 -66 -85 -108.5t-130 -42.5q-55 0 -113.5 24.5t-111.5 49t-96 24.5q-39 0 -71 -20t-73 -64z" />
<glyph unicode="&#xc4;" horiz-adv-x="1488" d="M-6 0l12 115h158l590 1181h-170l12 113h381l381 -1294h158l-13 -115h-477l12 115h170q-51 165 -106 368h-613l-182 -368h170l-12 -115h-471zM549 604h518l-164 576l-22 75h-13q-24 -61 -30 -75zM662 1569q0 41 30 69.5t70 28.5q35 0 58.5 -23.5t23.5 -58.5 q0 -41 -30.5 -69.5t-70.5 -28.5q-35 0 -58 23.5t-23 58.5zM991 1569q0 41 29.5 69.5t71.5 28.5q34 0 58 -23.5t24 -58.5q0 -40 -31 -69t-70 -29q-36 0 -59 23t-23 59z" />
<glyph unicode="&#xc5;" horiz-adv-x="1488" d="M-6 0l12 115h158l590 1181h-170l12 113h381l381 -1294h158l-13 -115h-477l12 115h170q-51 165 -106 368h-613l-182 -368h170l-12 -115h-471zM549 604h518l-164 576l-22 75h-13q-24 -61 -30 -75zM735 1640q0 76 58.5 133.5t136.5 57.5q67 0 112 -47t45 -115 q0 -76 -59 -133t-137 -57q-67 0 -111.5 46.5t-44.5 114.5zM827 1647q0 -32 21 -53t53 -21q38 0 66 25.5t28 62.5q0 32 -21.5 54t-53.5 22q-38 0 -65.5 -26.5t-27.5 -63.5z" />
<glyph unicode="&#xc6;" horiz-adv-x="2031" d="M-14 0l12 115h156l700 1181h-160l13 113h1359l-30 -342h-115l23 221h-639l-54 -516h539l-12 -119h-539l-57 -532h639l22 219h115l-43 -340h-1071l12 113h184l39 370h-557l-225 -368h170l-12 -115h-469zM596 604h496l73 688h-166z" />
<glyph unicode="&#xc7;" horiz-adv-x="1347" d="M166 588q0 205 51.5 364.5t145 261.5t222 154.5t285.5 52.5q152 0 266 -53.5t172.5 -157.5t43.5 -243l-6 -58h-142l4 45q14 162 -86 251t-264 89q-121 0 -218.5 -41t-171.5 -124t-114.5 -219t-40.5 -316q0 -251 111.5 -366t310.5 -115q375 0 410 319h143l-2 -18 q-23 -199 -164 -309.5t-377 -118.5l-26 -45q20 0 41.5 -5.5t44 -18.5t37 -39t14.5 -62q0 -75 -55.5 -117.5t-149.5 -42.5q-47 0 -87.5 15t-57.5 29l-17 15l64 70q0 -3 12 -14t38 -22t54 -11q51 0 78 20.5t27 57.5q0 29 -20.5 47t-57.5 18q-15 0 -27.5 -3t-18.5 -6l-5 -3 l-35 25l57 94q-232 18 -360.5 168.5t-128.5 431.5z" />
<glyph unicode="&#xc8;" horiz-adv-x="1277" d="M90 0l12 113h185l125 1183h-185l11 113h1075l-31 -342h-115l23 221h-639l-53 -516h538l-12 -119h-539l-57 -532h639l23 219h114l-43 -340h-1071zM621 1868h186l158 -375h-105z" />
<glyph unicode="&#xc9;" horiz-adv-x="1277" d="M90 0l12 113h185l125 1183h-185l11 113h1075l-31 -342h-115l23 221h-639l-53 -516h538l-12 -119h-539l-57 -532h639l23 219h114l-43 -340h-1071zM700 1493l238 375h184l-315 -375h-107z" />
<glyph unicode="&#xca;" horiz-adv-x="1277" d="M90 0l12 113h185l125 1183h-185l11 113h1075l-31 -342h-115l23 221h-639l-53 -516h538l-12 -119h-539l-57 -532h639l23 219h114l-43 -340h-1071zM535 1493l251 375h181l174 -375h-105l-170 266l-227 -266h-104z" />
<glyph unicode="&#xcb;" horiz-adv-x="1277" d="M90 0l12 113h185l125 1183h-185l11 113h1075l-31 -342h-115l23 221h-639l-53 -516h538l-12 -119h-539l-57 -532h639l23 219h114l-43 -340h-1071zM600 1569q0 41 30 69.5t70 28.5q35 0 58.5 -23.5t23.5 -58.5q0 -41 -30 -69.5t-70 -28.5q-35 0 -58.5 23.5t-23.5 58.5z M930 1569q0 41 29.5 69.5t70.5 28.5q34 0 58 -23.5t24 -58.5q0 -40 -30.5 -69t-69.5 -29q-36 0 -59 23t-23 59z" />
<glyph unicode="&#xcc;" horiz-adv-x="694" d="M90 0l12 113h187l123 1181h-187l13 115h514l-13 -115h-186l-123 -1181h186l-12 -113h-514zM229 1870h187l157 -375h-104z" />
<glyph unicode="&#xcd;" horiz-adv-x="694" d="M90 0l12 113h187l123 1181h-187l13 115h514l-13 -115h-186l-123 -1181h186l-12 -113h-514zM401 1493l238 375h184l-315 -375h-107z" />
<glyph unicode="&#xce;" horiz-adv-x="694" d="M90 0l12 113h187l123 1181h-187l13 115h514l-13 -115h-186l-123 -1181h186l-12 -113h-514zM199 1495l252 375h180l174 -375h-105l-170 266l-227 -266h-104z" />
<glyph unicode="&#xcf;" horiz-adv-x="694" d="M90 0l12 113h187l123 1181h-187l13 115h514l-13 -115h-186l-123 -1181h186l-12 -113h-514zM262 1569q0 41 30 69.5t70 28.5q35 0 58.5 -23.5t23.5 -58.5q0 -41 -30 -69.5t-70 -28.5q-35 0 -58.5 23.5t-23.5 58.5zM592 1569q0 41 29.5 69.5t70.5 28.5q34 0 58 -23.5 t24 -58.5q0 -40 -30.5 -69t-69.5 -29q-36 0 -59 23t-23 59z" />
<glyph unicode="&#xd0;" horiz-adv-x="1492" d="M90 0l12 113h187l57 546h-168l12 115h168l56 522h-189l13 113h571q321 0 489 -151t168 -457q0 -401 -202.5 -601t-573.5 -200h-600zM430 121h254q170 0 293.5 46t198.5 135t110 210t35 279q0 243 -129.5 370t-411.5 127h-227l-55 -514h362l-12 -115h-363z" />
<glyph unicode="&#xd1;" horiz-adv-x="1671" d="M90 0l12 113h187l123 1181h-187l13 115h344l702 -1208h6l115 1093h-184l12 115h514l-12 -115h-189l-135 -1294h-170l-692 1188h-6l-113 -1075h186l-12 -113h-514zM649 1556q32 67 85.5 110.5t129.5 43.5q56 0 113 -24.5t109.5 -49t97.5 -24.5q39 0 71.5 20t71.5 64 l68 -47q-31 -66 -85 -109t-130 -43q-55 0 -114 24.5t-112 49t-96 24.5q-39 0 -70.5 -19.5t-72.5 -64.5z" />
<glyph unicode="&#xd2;" d="M172 586q0 206 50.5 366t143.5 262t221 154.5t285 52.5q258 0 402.5 -155t144.5 -459q0 -204 -50.5 -361.5t-143 -257.5t-219.5 -151t-285 -51q-260 0 -404.5 151t-144.5 449zM319 592q0 -479 416 -479q122 0 217.5 37.5t168.5 117t112 214t39 317.5q0 253 -109 374 t-305 121q-119 0 -215.5 -41t-170 -124t-113.5 -219.5t-40 -317.5zM647 1868h187l157 -375h-104z" />
<glyph unicode="&#xd3;" d="M172 586q0 206 50.5 366t143.5 262t221 154.5t285 52.5q258 0 402.5 -155t144.5 -459q0 -204 -50.5 -361.5t-143 -257.5t-219.5 -151t-285 -51q-260 0 -404.5 151t-144.5 449zM319 592q0 -479 416 -479q122 0 217.5 37.5t168.5 117t112 214t39 317.5q0 253 -109 374 t-305 121q-119 0 -215.5 -41t-170 -124t-113.5 -219.5t-40 -317.5zM764 1493l237 375h185l-316 -375h-106z" />
<glyph unicode="&#xd4;" d="M172 586q0 206 50.5 366t143.5 262t221 154.5t285 52.5q258 0 402.5 -155t144.5 -459q0 -204 -50.5 -361.5t-143 -257.5t-219.5 -151t-285 -51q-260 0 -404.5 151t-144.5 449zM319 592q0 -479 416 -479q122 0 217.5 37.5t168.5 117t112 214t39 317.5q0 253 -109 374 t-305 121q-119 0 -215.5 -41t-170 -124t-113.5 -219.5t-40 -317.5zM586 1493l252 375h180l174 -375h-105l-169 266l-228 -266h-104z" />
<glyph unicode="&#xd5;" d="M172 586q0 206 50.5 366t143.5 262t221 154.5t285 52.5q258 0 402.5 -155t144.5 -459q0 -204 -50.5 -361.5t-143 -257.5t-219.5 -151t-285 -51q-260 0 -404.5 151t-144.5 449zM319 592q0 -479 416 -479q122 0 217.5 37.5t168.5 117t112 214t39 317.5q0 253 -109 374 t-305 121q-119 0 -215.5 -41t-170 -124t-113.5 -219.5t-40 -317.5zM510 1559q32 66 85.5 109.5t129.5 43.5q56 0 113 -24.5t109 -49t97 -24.5q39 0 72 20t72 64l67 -47q-31 -66 -85 -109t-130 -43q-55 0 -113.5 24.5t-111.5 49t-96 24.5q-39 0 -71 -20t-73 -64z" />
<glyph unicode="&#xd6;" d="M172 586q0 206 50.5 366t143.5 262t221 154.5t285 52.5q258 0 402.5 -155t144.5 -459q0 -204 -50.5 -361.5t-143 -257.5t-219.5 -151t-285 -51q-260 0 -404.5 151t-144.5 449zM319 592q0 -479 416 -479q122 0 217.5 37.5t168.5 117t112 214t39 317.5q0 253 -109 374 t-305 121q-119 0 -215.5 -41t-170 -124t-113.5 -219.5t-40 -317.5zM631 1569q0 41 30 69.5t70 28.5q35 0 58.5 -23.5t23.5 -58.5q0 -41 -30 -69.5t-70 -28.5q-35 0 -58.5 23.5t-23.5 58.5zM961 1569q0 41 29.5 69.5t70.5 28.5q34 0 58 -23.5t24 -58.5q0 -40 -31 -69t-70 -29 q-36 0 -58.5 23t-22.5 59z" />
<glyph unicode="&#xd7;" horiz-adv-x="1077" d="M125 147l387 353l-313 354l88 80l313 -352l387 352l72 -80l-387 -354l313 -353l-88 -79l-313 352l-387 -352z" />
<glyph unicode="&#xd8;" d="M172 586q0 206 50.5 366t143.5 262t221 154.5t285 52.5q142 0 252 -49l68 115l113 -57l-74 -123q188 -155 188 -500q0 -204 -50.5 -361.5t-143 -257.5t-219.5 -151t-285 -51q-141 0 -248 43l-78 -129l-112 57l79 135q-190 151 -190 494zM319 592q0 -256 119 -375 l617 1038q-82 39 -197 39q-119 0 -215.5 -41t-170 -124t-113.5 -219.5t-40 -317.5zM543 147q75 -34 192 -34q122 0 217.5 37.5t168.5 117t112 214t39 317.5q0 255 -117 381z" />
<glyph unicode="&#xd9;" horiz-adv-x="1550" d="M197 1294l12 115h514l-12 -115h-189l-80 -766q-11 -95 1.5 -168.5t50.5 -130t111.5 -86.5t180.5 -30q202 0 307.5 107t125.5 298l81 776h-186l12 115h512l-12 -115h-186l-80 -764q-29 -270 -178 -407t-408 -137q-260 0 -381 137t-92 407l80 764h-184zM721 1868h186 l158 -375h-104z" />
<glyph unicode="&#xda;" horiz-adv-x="1550" d="M197 1294l12 115h514l-12 -115h-189l-80 -766q-11 -95 1.5 -168.5t50.5 -130t111.5 -86.5t180.5 -30q202 0 307.5 107t125.5 298l81 776h-186l12 115h512l-12 -115h-186l-80 -764q-29 -270 -178 -407t-408 -137q-260 0 -381 137t-92 407l80 764h-184zM791 1559l237 374 h184l-315 -374h-106z" />
<glyph unicode="&#xdb;" horiz-adv-x="1550" d="M197 1294l12 115h514l-12 -115h-189l-80 -766q-11 -95 1.5 -168.5t50.5 -130t111.5 -86.5t180.5 -30q202 0 307.5 107t125.5 298l81 776h-186l12 115h512l-12 -115h-186l-80 -764q-29 -270 -178 -407t-408 -137q-260 0 -381 137t-92 407l80 764h-184zM621 1561l251 374 h181l174 -374h-105l-170 266l-227 -266h-104z" />
<glyph unicode="&#xdc;" horiz-adv-x="1550" d="M197 1294l12 115h514l-12 -115h-189l-80 -766q-11 -95 1.5 -168.5t50.5 -130t111.5 -86.5t180.5 -30q202 0 307.5 107t125.5 298l81 776h-186l12 115h512l-12 -115h-186l-80 -764q-29 -270 -178 -407t-408 -137q-260 0 -381 137t-92 407l80 764h-184zM696 1573 q0 41 30.5 69.5t70.5 28.5q35 0 58.5 -23.5t23.5 -58.5q0 -41 -30.5 -69.5t-70.5 -28.5q-35 0 -58.5 23.5t-23.5 58.5zM1026 1573q0 41 29.5 69.5t70.5 28.5q34 0 58 -23.5t24 -58.5q0 -40 -30.5 -69t-69.5 -29q-36 0 -59 23t-23 59z" />
<glyph unicode="&#xdd;" horiz-adv-x="1370" d="M133 1294l12 115h486l-13 -115h-169l301 -614h14l436 614h-172l12 115h482l-13 -115h-159l-537 -745l-47 -436h190l-10 -113h-520l10 113h187l47 436l-379 745h-158zM684 1561l238 374h184l-315 -374h-107z" />
<glyph unicode="&#xde;" horiz-adv-x="1269" d="M90 0l12 113h187l123 1181h-187l13 115h327l-20 -201h297q196 0 317 -101.5t121 -285.5q0 -235 -144.5 -362t-408.5 -127h-274l-23 -219h232l-13 -113h-559zM465 453h270q191 0 297.5 86t106.5 268q0 97 -47.5 161.5t-120 90.5t-166.5 26h-273z" />
<glyph unicode="&#xdf;" horiz-adv-x="1273" d="M55 0l13 113h143l100 960q13 120 55.5 212t108 148t147 84.5t177.5 28.5q175 0 275 -88.5t100 -232.5q0 -83 -25.5 -146.5t-61.5 -101t-72 -69t-61.5 -70t-25.5 -84.5q0 -32 16.5 -59t43 -48t58.5 -42t64.5 -47.5t59 -58.5t43 -80t16.5 -108q0 -155 -109 -240t-282 -85 q-42 0 -82.5 7.5t-68.5 18t-50 21.5t-33 19l-10 7l33 111q8 -8 23 -19t69 -30t117 -19q119 0 188.5 58.5t69.5 146.5q0 47 -17 84.5t-44 63.5t-59.5 48.5t-65 44.5t-59.5 47t-44 61t-17 81q0 59 25.5 106t62 81t73 69t62 88t25.5 121q0 96 -59.5 162t-188.5 66 q-139 0 -229 -91.5t-110 -271.5l-101 -954h135l-12 -113h-416z" />
<glyph unicode="&#xe0;" horiz-adv-x="1089" d="M115 238q0 139 124 213.5t336 74.5h254l11 86q15 128 -49.5 187t-204.5 59q-124 0 -197.5 -53t-81.5 -139l-2 -25h-125l4 45q10 116 120.5 200.5t297.5 84.5q198 0 295.5 -91.5t77.5 -273.5l-51 -493h114l-12 -113h-219l4 162h-4q-4 -7 -13 -19t-42.5 -42.5t-74 -53.5 t-109.5 -42t-148 -19q-137 0 -221 71t-84 181zM252 246q0 -69 57 -110.5t148 -41.5q65 0 124.5 18t98 44t68 52t42.5 44l13 18l16 156h-244q-143 0 -233 -45.5t-90 -134.5zM444 1473h187l157 -375h-104z" />
<glyph unicode="&#xe1;" horiz-adv-x="1089" d="M115 238q0 139 124 213.5t336 74.5h254l11 86q15 128 -49.5 187t-204.5 59q-124 0 -197.5 -53t-81.5 -139l-2 -25h-125l4 45q10 116 120.5 200.5t297.5 84.5q198 0 295.5 -91.5t77.5 -273.5l-51 -493h114l-12 -113h-219l4 162h-4q-4 -7 -13 -19t-42.5 -42.5t-74 -53.5 t-109.5 -42t-148 -19q-137 0 -221 71t-84 181zM252 246q0 -69 57 -110.5t148 -41.5q65 0 124.5 18t98 44t68 52t42.5 44l13 18l16 156h-244q-143 0 -233 -45.5t-90 -134.5zM557 1098l238 375h184l-315 -375h-107z" />
<glyph unicode="&#xe2;" horiz-adv-x="1089" d="M115 238q0 139 124 213.5t336 74.5h254l11 86q15 128 -49.5 187t-204.5 59q-124 0 -197.5 -53t-81.5 -139l-2 -25h-125l4 45q10 116 120.5 200.5t297.5 84.5q198 0 295.5 -91.5t77.5 -273.5l-51 -493h114l-12 -113h-219l4 162h-4q-4 -7 -13 -19t-42.5 -42.5t-74 -53.5 t-109.5 -42t-148 -19q-137 0 -221 71t-84 181zM252 246q0 -69 57 -110.5t148 -41.5q65 0 124.5 18t98 44t68 52t42.5 44l13 18l16 156h-244q-143 0 -233 -45.5t-90 -134.5zM365 1098l251 375h181l174 -375h-105l-170 266l-227 -266h-104z" />
<glyph unicode="&#xe3;" horiz-adv-x="1089" d="M115 238q0 139 124 213.5t336 74.5h254l11 86q15 128 -49.5 187t-204.5 59q-124 0 -197.5 -53t-81.5 -139l-2 -25h-125l4 45q10 116 120.5 200.5t297.5 84.5q198 0 295.5 -91.5t77.5 -273.5l-51 -493h114l-12 -113h-219l4 162h-4q-4 -7 -13 -19t-42.5 -42.5t-74 -53.5 t-109.5 -42t-148 -19q-137 0 -221 71t-84 181zM252 246q0 -69 57 -110.5t148 -41.5q65 0 124.5 18t98 44t68 52t42.5 44l13 18l16 156h-244q-143 0 -233 -45.5t-90 -134.5zM301 1135q32 66 85.5 109.5t129.5 43.5q56 0 113 -24.5t109.5 -49t97.5 -24.5q39 0 71.5 20t71.5 64 l68 -47q-31 -66 -85.5 -109t-130.5 -43q-55 0 -113.5 24.5t-111.5 49.5t-96 25q-39 0 -70.5 -19.5t-72.5 -64.5z" />
<glyph unicode="&#xe4;" horiz-adv-x="1089" d="M115 238q0 139 124 213.5t336 74.5h254l11 86q15 128 -49.5 187t-204.5 59q-124 0 -197.5 -53t-81.5 -139l-2 -25h-125l4 45q10 116 120.5 200.5t297.5 84.5q198 0 295.5 -91.5t77.5 -273.5l-51 -493h114l-12 -113h-219l4 162h-4q-4 -7 -13 -19t-42.5 -42.5t-74 -53.5 t-109.5 -42t-148 -19q-137 0 -221 71t-84 181zM252 246q0 -69 57 -110.5t148 -41.5q65 0 124.5 18t98 44t68 52t42.5 44l13 18l16 156h-244q-143 0 -233 -45.5t-90 -134.5zM412 1169q0 41 30 70t70 29q35 0 58.5 -23.5t23.5 -58.5q0 -41 -30 -70t-70 -29q-35 0 -58.5 23.5 t-23.5 58.5zM741 1169q0 41 30 70t71 29q34 0 58 -23.5t24 -58.5q0 -40 -31 -69.5t-70 -29.5q-36 0 -59 23t-23 59z" />
<glyph unicode="&#xe5;" horiz-adv-x="1089" d="M115 238q0 139 124 213.5t336 74.5h254l11 86q15 128 -49.5 187t-204.5 59q-124 0 -197.5 -53t-81.5 -139l-2 -25h-125l4 45q10 116 120.5 200.5t297.5 84.5q198 0 295.5 -91.5t77.5 -273.5l-51 -493h114l-12 -113h-219l4 162h-4q-4 -7 -13 -19t-42.5 -42.5t-74 -53.5 t-109.5 -42t-148 -19q-137 0 -221 71t-84 181zM252 246q0 -69 57 -110.5t148 -41.5q65 0 124.5 18t98 44t68 52t42.5 44l13 18l16 156h-244q-143 0 -233 -45.5t-90 -134.5zM498 1241q0 77 58 134t136 57q67 0 112.5 -47t45.5 -115q0 -76 -59.5 -133.5t-137.5 -57.5 q-67 0 -111 47t-44 115zM590 1247q0 -32 21 -52.5t53 -20.5q38 0 66 25.5t28 62.5q0 32 -22 53.5t-54 21.5q-38 0 -65 -26.5t-27 -63.5z" />
<glyph unicode="&#xe6;" horiz-adv-x="1736" d="M115 238q0 139 124 213.5t336 74.5h254l11 86q15 128 -49.5 187t-204.5 59q-124 0 -197.5 -53t-81.5 -139l-2 -25h-125l4 45q10 116 120.5 200.5t297.5 84.5q272 0 348 -168q70 82 169 125t216 43q166 0 271.5 -111t105.5 -282q0 -36 -5.5 -70t-10.5 -50l-6 -16h-729 q-3 -86 19.5 -152.5t65 -106.5t96.5 -60.5t118 -20.5q63 0 119.5 11t92 27t62 31.5t38.5 26.5l11 11l41 -98q-5 -5 -14.5 -13.5t-44.5 -30t-76 -38t-109 -30t-143 -13.5q-121 0 -218 57t-149 162h-4q-5 -9 -14.5 -23.5t-47 -52.5t-84 -67t-127 -52.5t-173.5 -23.5 q-137 0 -221 71t-84 181zM252 246q0 -69 57 -110.5t148 -41.5q65 0 124.5 18t98 44t68 52t42.5 44l13 18l16 156h-244q-143 0 -233 -45.5t-90 -134.5zM971 545h608q8 79 -11.5 141t-58 97t-85.5 53t-99 18q-129 0 -229 -81.5t-125 -227.5z" />
<glyph unicode="&#xe7;" horiz-adv-x="1050" d="M139 420q0 266 143 408.5t386 142.5q107 0 185.5 -28t121 -76t58 -108.5t5.5 -129.5l-6 -49h-127q2 12 4 32q11 114 -51.5 178t-202.5 64q-177 0 -278 -101.5t-101 -320.5q0 -159 91.5 -244.5t228.5 -85.5q64 0 120.5 11t92.5 27t63 31.5t38 26.5l12 11l39 -98 q-5 -5 -14 -13t-43 -29t-73.5 -37.5t-105 -30.5t-137.5 -15l-25 -45q20 0 41.5 -5.5t44 -18.5t37 -39t14.5 -62q0 -76 -55 -118t-149 -42q-47 0 -87.5 15t-57.5 29l-17 15l63 70q0 -3 12.5 -14t38.5 -22t54 -11q51 0 77.5 20.5t26.5 57.5q0 29 -20.5 47t-57.5 18 q-15 0 -27.5 -3t-18.5 -6l-5 -3l-35 25l60 98q-168 21 -265.5 132.5t-97.5 295.5z" />
<glyph unicode="&#xe8;" horiz-adv-x="1071" d="M137 422q0 128 42 233t115 173.5t170 105.5t208 37q166 0 271.5 -111t105.5 -282q0 -36 -5.5 -70t-11.5 -50l-6 -16h-752q-3 -86 21.5 -152.5t70 -106.5t104 -60.5t126.5 -20.5q63 0 119.5 11t92.5 27t62.5 31.5t37.5 26.5l12 11l41 -98q-5 -5 -14.5 -13.5t-45 -30 t-76.5 -38t-109 -30t-143 -13.5q-197 0 -316.5 115t-119.5 321zM285 545h630q8 79 -11 141t-58 97t-86 53t-98 18q-136 0 -242.5 -81.5t-134.5 -227.5zM436 1473h187l157 -375h-104z" />
<glyph unicode="&#xe9;" horiz-adv-x="1071" d="M137 422q0 128 42 233t115 173.5t170 105.5t208 37q166 0 271.5 -111t105.5 -282q0 -36 -5.5 -70t-11.5 -50l-6 -16h-752q-3 -86 21.5 -152.5t70 -106.5t104 -60.5t126.5 -20.5q63 0 119.5 11t92.5 27t62.5 31.5t37.5 26.5l12 11l41 -98q-5 -5 -14.5 -13.5t-45 -30 t-76.5 -38t-109 -30t-143 -13.5q-197 0 -316.5 115t-119.5 321zM285 545h630q8 79 -11 141t-58 97t-86 53t-98 18q-136 0 -242.5 -81.5t-134.5 -227.5zM532 1098l238 375h184l-315 -375h-107z" />
<glyph unicode="&#xea;" horiz-adv-x="1071" d="M137 422q0 128 42 233t115 173.5t170 105.5t208 37q166 0 271.5 -111t105.5 -282q0 -36 -5.5 -70t-11.5 -50l-6 -16h-752q-3 -86 21.5 -152.5t70 -106.5t104 -60.5t126.5 -20.5q63 0 119.5 11t92.5 27t62.5 31.5t37.5 26.5l12 11l41 -98q-5 -5 -14.5 -13.5t-45 -30 t-76.5 -38t-109 -30t-143 -13.5q-197 0 -316.5 115t-119.5 321zM285 545h630q8 79 -11 141t-58 97t-86 53t-98 18q-136 0 -242.5 -81.5t-134.5 -227.5zM356 1098l252 375h180l175 -375h-105l-170 266l-227 -266h-105z" />
<glyph unicode="&#xeb;" horiz-adv-x="1071" d="M137 422q0 128 42 233t115 173.5t170 105.5t208 37q166 0 271.5 -111t105.5 -282q0 -36 -5.5 -70t-11.5 -50l-6 -16h-752q-3 -86 21.5 -152.5t70 -106.5t104 -60.5t126.5 -20.5q63 0 119.5 11t92.5 27t62.5 31.5t37.5 26.5l12 11l41 -98q-5 -5 -14.5 -13.5t-45 -30 t-76.5 -38t-109 -30t-143 -13.5q-197 0 -316.5 115t-119.5 321zM285 545h630q8 79 -11 141t-58 97t-86 53t-98 18q-136 0 -242.5 -81.5t-134.5 -227.5zM410 1169q0 41 30 70t70 29q35 0 58.5 -23.5t23.5 -58.5q0 -41 -30 -70t-70 -29q-35 0 -58.5 23.5t-23.5 58.5zM739 1169 q0 41 30 70t71 29q34 0 58 -23.5t24 -58.5q0 -40 -31 -69.5t-70 -29.5q-36 0 -59 23t-23 59z" />
<glyph unicode="&#xec;" horiz-adv-x="569" d="M57 1460h187l157 -375h-104zM84 0l12 113h144l75 731h-143l12 112h281l-88 -843h139l-12 -113h-420z" />
<glyph unicode="&#xed;" horiz-adv-x="569" d="M84 0l12 113h144l75 731h-143l12 112h281l-88 -843h139l-12 -113h-420zM330 1098l237 375h185l-316 -375h-106z" />
<glyph unicode="&#xee;" horiz-adv-x="569" d="M84 0l12 113h144l75 731h-143l12 112h281l-88 -843h139l-12 -113h-420zM102 1098l252 375h181l174 -375h-105l-170 266l-227 -266h-105z" />
<glyph unicode="&#xef;" horiz-adv-x="569" d="M84 0l12 113h144l75 731h-143l12 112h281l-88 -843h139l-12 -113h-420zM168 1169q0 41 30 70t70 29q35 0 58.5 -23.5t23.5 -58.5q0 -41 -30 -70t-70 -29q-35 0 -58.5 23.5t-23.5 58.5zM498 1169q0 41 29.5 70t70.5 29q34 0 58 -23.5t24 -58.5q0 -40 -30.5 -69.5 t-69.5 -29.5q-36 0 -59 23t-23 59z" />
<glyph unicode="&#xf0;" horiz-adv-x="1271" d="M137 393q0 211 139.5 343t382.5 132q262 0 420 -129q-1 151 -62.5 269t-170.5 194l-172 -133l-60 78l138 108q-138 66 -310 66l90 127q190 0 349 -94l133 104l59 -80l-106 -82q120 -97 190 -248t70 -325q0 -183 -47.5 -324.5t-133.5 -231t-202 -135.5t-258 -46 q-207 0 -328 112.5t-121 294.5zM276 406q0 -131 85.5 -212t238.5 -81q187 0 308.5 118t158.5 365q-11 12 -28 26.5t-54.5 37.5t-80.5 41t-107 31t-133 13q-167 0 -277.5 -98t-110.5 -241z" />
<glyph unicode="&#xf1;" horiz-adv-x="1224" d="M76 0l12 113h143l76 731h-143l12 112h250l-8 -190h4q2 4 5 11.5t16.5 29t30.5 40.5t47 43t65.5 41t87 28.5t110.5 11.5q179 0 259.5 -102.5t62.5 -272.5l-51 -483h143l-12 -113h-281l62 578q13 127 -40 200.5t-186 73.5q-69 0 -127.5 -23t-92.5 -55t-57.5 -64.5 t-32.5 -55.5l-9 -23l-53 -518h139l-12 -113h-420zM391 1135q32 66 85.5 109.5t129.5 43.5q56 0 113 -24.5t109.5 -49t97.5 -24.5q39 0 71.5 20t71.5 64l68 -47q-31 -66 -85 -109t-130 -43q-44 0 -91 15.5t-80.5 34t-75 34t-75.5 15.5q-39 0 -70.5 -19.5t-72.5 -64.5z" />
<glyph unicode="&#xf2;" horiz-adv-x="1128" d="M137 420q0 128 43 234t116.5 174.5t169 105.5t202.5 37q186 0 306 -116.5t120 -319.5q0 -127 -41 -231.5t-112.5 -173.5t-168 -106.5t-207.5 -37.5q-194 0 -311 115t-117 319zM274 430q0 -159 87 -243.5t217 -84.5q72 0 138.5 26t120.5 76.5t86.5 133t32.5 186.5 q0 81 -26.5 146t-70 104t-96 59.5t-108.5 20.5q-66 0 -131.5 -26t-122.5 -75.5t-92 -133.5t-35 -189zM446 1473h187l158 -375h-105z" />
<glyph unicode="&#xf3;" horiz-adv-x="1128" d="M137 420q0 128 43 234t116.5 174.5t169 105.5t202.5 37q186 0 306 -116.5t120 -319.5q0 -127 -41 -231.5t-112.5 -173.5t-168 -106.5t-207.5 -37.5q-194 0 -311 115t-117 319zM274 430q0 -159 87 -243.5t217 -84.5q72 0 138.5 26t120.5 76.5t86.5 133t32.5 186.5 q0 81 -26.5 146t-70 104t-96 59.5t-108.5 20.5q-66 0 -131.5 -26t-122.5 -75.5t-92 -133.5t-35 -189zM547 1098l237 375h185l-316 -375h-106z" />
<glyph unicode="&#xf4;" horiz-adv-x="1128" d="M137 420q0 128 43 234t116.5 174.5t169 105.5t202.5 37q186 0 306 -116.5t120 -319.5q0 -127 -41 -231.5t-112.5 -173.5t-168 -106.5t-207.5 -37.5q-194 0 -311 115t-117 319zM274 430q0 -159 87 -243.5t217 -84.5q72 0 138.5 26t120.5 76.5t86.5 133t32.5 186.5 q0 81 -26.5 146t-70 104t-96 59.5t-108.5 20.5q-66 0 -131.5 -26t-122.5 -75.5t-92 -133.5t-35 -189zM373 1098l252 375h180l174 -375h-105l-169 266l-228 -266h-104z" />
<glyph unicode="&#xf5;" horiz-adv-x="1128" d="M137 420q0 128 43 234t116.5 174.5t169 105.5t202.5 37q186 0 306 -116.5t120 -319.5q0 -127 -41 -231.5t-112.5 -173.5t-168 -106.5t-207.5 -37.5q-194 0 -311 115t-117 319zM274 430q0 -159 87 -243.5t217 -84.5q72 0 138.5 26t120.5 76.5t86.5 133t32.5 186.5 q0 81 -26.5 146t-70 104t-96 59.5t-108.5 20.5q-66 0 -131.5 -26t-122.5 -75.5t-92 -133.5t-35 -189zM311 1135q32 66 85.5 109.5t129.5 43.5q56 0 113 -24.5t109.5 -49t97.5 -24.5q39 0 71.5 20t71.5 64l68 -47q-31 -66 -85 -109t-130 -43q-44 0 -91 15.5t-80.5 34t-75 34 t-75.5 15.5q-39 0 -70.5 -19.5t-72.5 -64.5z" />
<glyph unicode="&#xf6;" horiz-adv-x="1128" d="M137 420q0 128 43 234t116.5 174.5t169 105.5t202.5 37q186 0 306 -116.5t120 -319.5q0 -127 -41 -231.5t-112.5 -173.5t-168 -106.5t-207.5 -37.5q-194 0 -311 115t-117 319zM274 430q0 -159 87 -243.5t217 -84.5q72 0 138.5 26t120.5 76.5t86.5 133t32.5 186.5 q0 81 -26.5 146t-70 104t-96 59.5t-108.5 20.5q-66 0 -131.5 -26t-122.5 -75.5t-92 -133.5t-35 -189zM418 1169q0 41 30 70t70 29q35 0 58.5 -23.5t23.5 -58.5q0 -41 -30 -70t-70 -29q-35 0 -58.5 23.5t-23.5 58.5zM748 1169q0 41 29.5 70t70.5 29q34 0 58 -23.5t24 -58.5 q0 -40 -31 -69.5t-70 -29.5q-36 0 -58.5 23t-22.5 59z" />
<glyph unicode="&#xf7;" horiz-adv-x="1157" d="M186 530l13 117h895l-13 -117h-895zM516 215q0 41 30.5 70.5t71.5 29.5q35 0 59.5 -24.5t24.5 -59.5q0 -41 -31 -70.5t-71 -29.5q-36 0 -60 24t-24 60zM590 913q0 41 30.5 71t71.5 30q35 0 58.5 -24.5t23.5 -59.5q0 -41 -30.5 -71t-71.5 -30q-35 0 -58.5 24.5t-23.5 59.5 z" />
<glyph unicode="&#xf8;" horiz-adv-x="1128" d="M137 420q0 128 43 234t116.5 174.5t169 105.5t202.5 37q84 0 163 -29l54 88l96 -55l-51 -84q164 -121 164 -356q0 -127 -41 -231.5t-112.5 -173.5t-168 -106.5t-207.5 -37.5q-87 0 -170 26l-63 -106l-96 55l61 102q-76 55 -118 146t-42 211zM274 430q0 -160 95 -252 l397 656q-53 20 -111 20q-66 0 -131.5 -26t-122.5 -75.5t-92 -133.5t-35 -189zM463 121q55 -19 115 -19q72 0 138.5 26t120.5 76.5t86.5 133t32.5 186.5q0 159 -98 250z" />
<glyph unicode="&#xf9;" horiz-adv-x="1208" d="M129 844l12 112h281l-62 -577q-28 -275 226 -275q63 0 117 19.5t87 44.5t59.5 59.5t36.5 53.5t17 36l55 527h-139l12 112h277l-88 -843h143l-12 -113h-248l6 197h-4q-3 -9 -10 -23t-35 -50.5t-65 -64t-103.5 -50.5t-146.5 -23q-181 0 -261.5 102t-62.5 272l51 484h-143z M403 1473h187l158 -375h-105z" />
<glyph unicode="&#xfa;" horiz-adv-x="1208" d="M129 844l12 112h281l-62 -577q-28 -275 226 -275q63 0 117 19.5t87 44.5t59.5 59.5t36.5 53.5t17 36l55 527h-139l12 112h277l-88 -843h143l-12 -113h-248l6 197h-4q-3 -9 -10 -23t-35 -50.5t-65 -64t-103.5 -50.5t-146.5 -23q-181 0 -261.5 102t-62.5 272l51 484h-143z M494 1098l237 375h184l-315 -375h-106z" />
<glyph unicode="&#xfb;" horiz-adv-x="1208" d="M129 844l12 112h281l-62 -577q-28 -275 226 -275q63 0 117 19.5t87 44.5t59.5 59.5t36.5 53.5t17 36l55 527h-139l12 112h277l-88 -843h143l-12 -113h-248l6 197h-4q-3 -9 -10 -23t-35 -50.5t-65 -64t-103.5 -50.5t-146.5 -23q-181 0 -261.5 102t-62.5 272l51 484h-143z M365 1098l251 375h181l174 -375h-105l-170 266l-227 -266h-104z" />
<glyph unicode="&#xfc;" horiz-adv-x="1208" d="M129 844l12 112h281l-62 -577q-28 -275 226 -275q63 0 117 19.5t87 44.5t59.5 59.5t36.5 53.5t17 36l55 527h-139l12 112h277l-88 -843h143l-12 -113h-248l6 197h-4q-3 -9 -10 -23t-35 -50.5t-65 -64t-103.5 -50.5t-146.5 -23q-181 0 -261.5 102t-62.5 272l51 484h-143z M418 1169q0 41 30 70t70 29q35 0 58.5 -23.5t23.5 -58.5q0 -41 -30 -70t-70 -29q-35 0 -58.5 23.5t-23.5 58.5zM748 1169q0 41 29.5 70t70.5 29q34 0 58 -23.5t24 -58.5q0 -40 -31 -69.5t-70 -29.5q-36 0 -58.5 23t-22.5 59z" />
<glyph unicode="&#xfd;" horiz-adv-x="1155" d="M-2 -455q158 58 301 180t217 259l16 30h-28l-262 830h-140l11 112h401l-10 -112h-119l207 -682h10l352 682h-120l10 112h399l-10 -112h-139l-457 -879q-36 -70 -88 -141t-126 -147t-175.5 -143t-216.5 -112zM539 1098l237 375h185l-316 -375h-106z" />
<glyph unicode="&#xfe;" horiz-adv-x="1169" d="M-33 -569l13 112h143l196 1872h-143l12 113h281l-72 -682l-6 -27h4q15 18 37 38t64 48.5t105 47t134 18.5q178 0 286.5 -113t108.5 -317q0 -129 -41.5 -236t-111.5 -175.5t-159 -106t-187 -37.5q-67 0 -123.5 14t-89.5 33.5t-57 40.5t-33 34t-9 15h-4q-2 -62 -2 -72 l-55 -520h162l-10 -100h-443zM334 246q77 -144 282 -144q67 0 132 26t120.5 76t90 133t34.5 187q0 158 -85 244t-212 86q-92 0 -179 -42.5t-136 -121.5z" />
<glyph unicode="&#xff;" horiz-adv-x="1155" d="M-2 -455q158 58 301 180t217 259l16 30h-28l-262 830h-140l11 112h401l-10 -112h-119l207 -682h10l352 682h-120l10 112h399l-10 -112h-139l-457 -879q-36 -70 -88 -141t-126 -147t-175.5 -143t-216.5 -112zM459 1169q0 41 30 70t70 29q35 0 58.5 -23.5t23.5 -58.5 q0 -41 -30 -70t-70 -29q-35 0 -58.5 23.5t-23.5 58.5zM788 1169q0 41 30 70t71 29q34 0 58 -23.5t24 -58.5q0 -40 -31 -69.5t-70 -29.5q-36 0 -59 23t-23 59z" />
<glyph unicode="&#x152;" horiz-adv-x="1808" d="M258 588q0 400 183.5 610.5t496.5 210.5h903l-29 -342h-114l20 221h-635l-55 -518h537l-13 -117h-536l-55 -532h634l23 219h115l-39 -340h-885q-261 0 -406 146.5t-145 441.5zM406 592q0 -249 107.5 -359t305.5 -110l123 1163q-120 -1 -216 -41t-168.5 -121.5 t-112 -216.5t-39.5 -315z" />
<glyph unicode="&#x153;" horiz-adv-x="1886" d="M137 420q0 128 43 234t116.5 174.5t169 105.5t202.5 37q126 0 225 -57t151 -162q72 105 188 162t255 57q166 0 271.5 -111t105.5 -282q0 -36 -6 -70t-12 -50l-5 -16h-751q-3 -86 21.5 -152.5t69.5 -106.5t103.5 -60.5t126.5 -20.5q63 0 119.5 11t92 27t62.5 31.5t39 26.5 l11 11l41 -98q-5 -5 -14.5 -13.5t-44.5 -30t-76 -38t-109 -30t-143 -13.5q-135 0 -236.5 55.5t-153.5 159.5q-70 -104 -183.5 -159.5t-250.5 -55.5q-194 0 -311 115t-117 319zM274 430q0 -159 87 -243.5t217 -84.5q142 0 250 94.5t126 270.5v22q2 10 2 35q0 81 -26.5 146 t-70 104t-96 59.5t-108.5 20.5q-66 0 -131.5 -26t-122.5 -75.5t-92 -133.5t-35 -189zM1100 545h631q8 79 -11.5 141t-58 97t-85.5 53t-99 18q-136 0 -242.5 -81.5t-134.5 -227.5z" />
<glyph unicode="&#x178;" horiz-adv-x="1370" d="M133 1294l12 115h486l-13 -115h-169l301 -614h14l436 614h-172l12 115h482l-13 -115h-159l-537 -745l-47 -436h190l-10 -113h-520l10 113h187l47 436l-379 745h-158zM600 1575q0 41 30 69.5t70 28.5q35 0 58.5 -23.5t23.5 -58.5q0 -41 -30 -69.5t-70 -28.5 q-35 0 -58.5 23.5t-23.5 58.5zM930 1575q0 41 29.5 69.5t70.5 28.5q34 0 58 -23.5t24 -58.5q0 -40 -30.5 -69t-69.5 -29q-36 0 -59 23t-23 59z" />
<glyph unicode="&#x2c6;" horiz-adv-x="827" d="M227 1098l252 375h180l175 -375h-105l-170 266l-227 -266h-105z" />
<glyph unicode="&#x2dc;" horiz-adv-x="761" d="M143 1135q32 66 85.5 109.5t129.5 43.5q56 0 113 -24.5t109.5 -49t97.5 -24.5q39 0 71.5 20t71.5 64l68 -47q-31 -66 -85 -109t-130 -43q-44 0 -91 15.5t-80.5 34t-75 34t-75.5 15.5q-39 0 -70.5 -19.5t-72.5 -64.5z" />
<glyph unicode="&#x2000;" horiz-adv-x="967" />
<glyph unicode="&#x2001;" horiz-adv-x="1935" />
<glyph unicode="&#x2002;" horiz-adv-x="967" />
<glyph unicode="&#x2003;" horiz-adv-x="1935" />
<glyph unicode="&#x2004;" horiz-adv-x="645" />
<glyph unicode="&#x2005;" horiz-adv-x="483" />
<glyph unicode="&#x2006;" horiz-adv-x="322" />
<glyph unicode="&#x2007;" horiz-adv-x="322" />
<glyph unicode="&#x2008;" horiz-adv-x="241" />
<glyph unicode="&#x2009;" horiz-adv-x="387" />
<glyph unicode="&#x200a;" horiz-adv-x="107" />
<glyph unicode="&#x2010;" horiz-adv-x="948" d="M190 535l15 127h678l-15 -127h-678z" />
<glyph unicode="&#x2011;" horiz-adv-x="948" d="M190 535l15 127h678l-15 -127h-678z" />
<glyph unicode="&#x2012;" horiz-adv-x="948" d="M190 535l15 127h678l-15 -127h-678z" />
<glyph unicode="&#x2013;" horiz-adv-x="1159" d="M190 535l15 127h887l-15 -127h-887z" />
<glyph unicode="&#x2014;" horiz-adv-x="1798" d="M190 535l15 127h1528l-15 -127h-1528z" />
<glyph unicode="&#x2018;" horiz-adv-x="411" d="M246 1331q0 194 174 258l14 -53q-33 -9 -68.5 -45t-35.5 -94l4 -15q10 11 39 11q32 0 52.5 -21.5t20.5 -56.5q0 -42 -31 -70t-73 -28q-45 0 -70.5 29.5t-25.5 84.5z" />
<glyph unicode="&#x2019;" horiz-adv-x="411" d="M256 1425q0 42 31 70.5t73 28.5q45 0 71 -30t26 -85q0 -194 -174 -258l-15 53q33 9 69 45t36 94l-4 15q-10 -10 -39 -10q-33 0 -53.5 21t-20.5 56z" />
<glyph unicode="&#x201a;" horiz-adv-x="468" d="M137 63q0 42 31.5 70.5t73.5 28.5q45 0 70.5 -30t25.5 -85q0 -194 -174 -258l-14 53q33 9 68.5 45.5t35.5 94.5l-4 14q-10 -10 -39 -10q-33 0 -53.5 21t-20.5 56z" />
<glyph unicode="&#x201c;" horiz-adv-x="735" d="M246 1331q0 194 174 258l14 -53q-33 -9 -68.5 -45t-35.5 -94l4 -15q10 11 39 11q32 0 52.5 -21.5t20.5 -56.5q0 -42 -31 -70t-73 -28q-45 0 -70.5 29.5t-25.5 84.5zM571 1331q0 194 174 258l15 -53q-33 -9 -69 -45t-36 -94l4 -15q10 11 39 11q33 0 53.5 -21.5t20.5 -56.5 q0 -42 -31 -70t-73 -28q-45 0 -71 29.5t-26 84.5z" />
<glyph unicode="&#x201d;" horiz-adv-x="710" d="M256 1425q0 42 31 70.5t73 28.5q45 0 71 -30t26 -85q0 -194 -174 -258l-15 53q33 9 69 45t36 94l-4 15q-10 -10 -39 -10q-33 0 -53.5 21t-20.5 56zM555 1425q0 42 31 70.5t73 28.5q45 0 71 -30t26 -85q0 -194 -174 -258l-15 53q33 9 69 45t36 94l-4 15q-10 -10 -39 -10 q-33 0 -53.5 21t-20.5 56z" />
<glyph unicode="&#x201e;" horiz-adv-x="765" d="M137 63q0 42 31.5 70.5t73.5 28.5q45 0 70.5 -30t25.5 -85q0 -194 -174 -258l-14 53q33 9 68.5 45.5t35.5 94.5l-4 14q-10 -10 -39 -10q-33 0 -53.5 21t-20.5 56zM434 63q0 42 31.5 70.5t73.5 28.5q45 0 70.5 -30t25.5 -85q0 -194 -174 -258l-15 53q33 9 69 45.5t36 94.5 l-4 14q-10 -10 -39 -10q-33 0 -53.5 21t-20.5 56z" />
<glyph unicode="&#x2022;" horiz-adv-x="735" d="M238 659q0 105 59 169.5t162 64.5q84 0 134 -50t50 -134q0 -104 -62.5 -166t-164.5 -62q-86 0 -132 47t-46 131z" />
<glyph unicode="&#x2026;" horiz-adv-x="948" d="M137 70q0 41 30.5 70.5t72.5 29.5q35 0 59.5 -24.5t24.5 -59.5q0 -42 -31 -71t-72 -29q-37 0 -60.5 23.5t-23.5 60.5zM391 70q0 41 30.5 70.5t72.5 29.5q35 0 59.5 -24.5t24.5 -59.5q0 -42 -30.5 -71t-72.5 -29q-36 0 -60 24t-24 60zM643 70q0 41 30.5 70.5t71.5 29.5 q35 0 59.5 -24.5t24.5 -59.5q0 -42 -30 -71t-72 -29q-36 0 -60 24t-24 60z" />
<glyph unicode="&#x202f;" horiz-adv-x="387" />
<glyph unicode="&#x2039;" horiz-adv-x="585" d="M150 440l10 103l327 338l88 -76l-296 -313l231 -314l-104 -76z" />
<glyph unicode="&#x203a;" horiz-adv-x="585" d="M117 178l297 314l-232 313l105 76l256 -338l-13 -103l-325 -338z" />
<glyph unicode="&#x205f;" horiz-adv-x="483" />
<glyph unicode="&#x20ac;" horiz-adv-x="1390" d="M125 479l12 115h187v10q0 99 16 160h-184l10 115h194q70 269 247.5 405.5t430.5 136.5q75 0 139 -11t113.5 -32.5t74 -35.5t58.5 -37l-86 -107q-117 96 -307 96q-191 0 -325 -101.5t-195 -313.5h594l-10 -115h-609l-8 -70q-8 -70 -6 -100h510l-12 -115h-494 q43 -366 434 -366q184 0 328 94l61 -107q-49 -30 -91 -50.5t-130.5 -42t-187.5 -21.5q-244 0 -391.5 123.5t-171.5 369.5h-201z" />
<glyph unicode="&#x2122;" horiz-adv-x="2244" d="M258 1237l25 233h798l-24 -233h-82l14 141h-258l-72 -694h111l-10 -92h-338l10 92h115l71 694h-262l-14 -141h-84zM1087 592l11 92h108l109 694h-109l11 92h251l154 -507q6 -21 14.5 -58t13.5 -63l5 -27h2q40 95 69 148l263 507h249l-10 -92h-108l-35 -694h108l-10 -92 h-313l10 92h100l31 643h-2l-336 -649h-65l-193 649h-2l-104 -643h98l-10 -92h-310z" />
<glyph unicode="&#x25fc;" horiz-adv-x="952" d="M0 0v952h952v-952h-952z" />
</font>
</defs>
</svg>
